G75*
G70*
%OFA0B0*%
%FSLAX24Y24*%
%IPPOS*%
%LPD*%
%AMOC8*
5,1,8,0,0,1.08239X$1,22.5*
%
%ADD10C,0.0000*%
%ADD11C,0.0520*%
%ADD12OC8,0.0520*%
%ADD13R,0.0650X0.0650*%
%ADD14C,0.0650*%
%ADD15C,0.0600*%
%ADD16R,0.0740X0.0740*%
%ADD17C,0.0740*%
%ADD18C,0.0515*%
%ADD19C,0.1122*%
%ADD20C,0.0160*%
%ADD21OC8,0.0396*%
%ADD22C,0.0396*%
D10*
X000816Y000312D02*
X000816Y019997D01*
X020501Y019997D01*
X020501Y000312D01*
X000816Y000312D01*
D11*
X010056Y001312D02*
X010576Y001312D01*
X010576Y002312D02*
X010056Y002312D01*
X010056Y003312D02*
X010576Y003312D01*
X010576Y004312D02*
X010056Y004312D01*
X010056Y005312D02*
X010576Y005312D01*
X010576Y006312D02*
X010056Y006312D01*
X010056Y007312D02*
X010576Y007312D01*
X010576Y008312D02*
X010056Y008312D01*
X010056Y009312D02*
X010576Y009312D01*
X010576Y010312D02*
X010056Y010312D01*
X010056Y011312D02*
X010576Y011312D01*
X010576Y012312D02*
X010056Y012312D01*
X010056Y013312D02*
X010576Y013312D01*
X010576Y014312D02*
X010056Y014312D01*
X013056Y014312D02*
X013576Y014312D01*
X013576Y013312D02*
X013056Y013312D01*
X013056Y012312D02*
X013576Y012312D01*
X013576Y011312D02*
X013056Y011312D01*
X013056Y010312D02*
X013576Y010312D01*
X013576Y009312D02*
X013056Y009312D01*
X013056Y008312D02*
X013576Y008312D01*
X013576Y007312D02*
X013056Y007312D01*
X013056Y006312D02*
X013576Y006312D01*
X013576Y005312D02*
X013056Y005312D01*
X013056Y004312D02*
X013576Y004312D01*
X013576Y003312D02*
X013056Y003312D01*
X013056Y002312D02*
X013576Y002312D01*
X013576Y001312D02*
X013056Y001312D01*
D12*
X015316Y003812D03*
X015316Y004812D03*
X016816Y006812D03*
X017816Y006312D03*
X015316Y008812D03*
X015316Y009812D03*
X016816Y010812D03*
X017816Y011312D03*
X019816Y011812D03*
X016816Y015812D03*
X018816Y016812D03*
X019816Y016812D03*
X015316Y013812D03*
X015316Y012812D03*
X012316Y016312D03*
X012316Y017312D03*
X012566Y018812D03*
X011566Y018812D03*
X010316Y018812D03*
X009316Y018812D03*
X013816Y016812D03*
X006816Y003312D03*
X005816Y003312D03*
X016816Y001812D03*
D13*
X015316Y006312D03*
X010316Y016812D03*
D14*
X009316Y016812D03*
X015316Y007312D03*
D15*
X008116Y007312D02*
X007516Y007312D01*
X007516Y006312D02*
X008116Y006312D01*
X008116Y005312D02*
X007516Y005312D01*
X007616Y016812D02*
X007016Y016812D01*
X007016Y017812D02*
X007616Y017812D01*
X007616Y018812D02*
X007016Y018812D01*
X013816Y019112D02*
X013816Y018512D01*
X014816Y018512D02*
X014816Y019112D01*
X015816Y019112D02*
X015816Y018512D01*
X017316Y018512D02*
X017316Y019112D01*
X018316Y019112D02*
X018316Y018512D01*
X019316Y018512D02*
X019316Y019112D01*
D16*
X019816Y009312D03*
X019816Y004312D03*
X004316Y001312D03*
X001316Y004312D03*
X001316Y009312D03*
X001316Y014312D03*
D17*
X001316Y013312D03*
X001316Y012312D03*
X001316Y011312D03*
X001316Y008312D03*
X001316Y007312D03*
X001316Y006312D03*
X001316Y003312D03*
X001316Y002312D03*
X001316Y001312D03*
X005316Y001312D03*
X006316Y001312D03*
X007316Y001312D03*
X008316Y001312D03*
X019816Y001312D03*
X019816Y002312D03*
X019816Y003312D03*
X019816Y006312D03*
X019816Y007312D03*
X019816Y008312D03*
D18*
X003986Y016212D03*
X003316Y016212D03*
X002616Y016212D03*
X002986Y016832D03*
X003676Y016832D03*
D19*
X004753Y018312D03*
X001879Y018312D03*
D20*
X001363Y017752D02*
X001296Y017752D01*
X001296Y017819D02*
X001448Y017667D01*
X001728Y017551D01*
X002031Y017551D01*
X002310Y017667D01*
X002524Y017881D01*
X002640Y018161D01*
X002640Y018464D01*
X002524Y018744D01*
X002310Y018958D01*
X002031Y019073D01*
X001728Y019073D01*
X001448Y018958D01*
X001296Y018806D01*
X001296Y019517D01*
X013514Y019517D01*
X013392Y019396D01*
X013316Y019212D01*
X013316Y018413D01*
X013392Y018229D01*
X013533Y018089D01*
X013717Y018012D01*
X013916Y018012D01*
X014100Y018089D01*
X014240Y018229D01*
X014316Y018413D01*
X014316Y019212D01*
X014240Y019396D01*
X014118Y019517D01*
X014514Y019517D01*
X014392Y019396D01*
X014316Y019212D01*
X014316Y018413D01*
X014392Y018229D01*
X014533Y018089D01*
X014717Y018012D01*
X014916Y018012D01*
X015100Y018089D01*
X015240Y018229D01*
X015316Y018413D01*
X015316Y019212D01*
X015240Y019396D01*
X015118Y019517D01*
X015557Y019517D01*
X015504Y019479D01*
X015450Y019425D01*
X015406Y019364D01*
X015372Y019297D01*
X015348Y019225D01*
X015336Y019150D01*
X015336Y018832D01*
X015796Y018832D01*
X015796Y018792D01*
X015836Y018792D01*
X015836Y018032D01*
X015854Y018032D01*
X015929Y018044D01*
X016001Y018068D01*
X016068Y018102D01*
X016129Y018146D01*
X016182Y018200D01*
X016227Y018261D01*
X016261Y018328D01*
X016285Y018400D01*
X016296Y018475D01*
X016296Y018792D01*
X015837Y018792D01*
X015837Y018832D01*
X016296Y018832D01*
X016296Y019150D01*
X016285Y019225D01*
X016261Y019297D01*
X016227Y019364D01*
X016182Y019425D01*
X016129Y019479D01*
X016075Y019517D01*
X017057Y019517D01*
X017004Y019479D01*
X016950Y019425D01*
X016906Y019364D01*
X016872Y019297D01*
X016848Y019225D01*
X016836Y019150D01*
X016836Y018832D01*
X017296Y018832D01*
X017296Y018792D01*
X017336Y018792D01*
X017336Y018032D01*
X017354Y018032D01*
X017429Y018044D01*
X017501Y018068D01*
X017568Y018102D01*
X017629Y018146D01*
X017682Y018200D01*
X017727Y018261D01*
X017761Y018328D01*
X017785Y018400D01*
X017796Y018475D01*
X017796Y018792D01*
X017337Y018792D01*
X017337Y018832D01*
X017796Y018832D01*
X017796Y019150D01*
X017785Y019225D01*
X017761Y019297D01*
X017727Y019364D01*
X017682Y019425D01*
X017629Y019479D01*
X017575Y019517D01*
X018014Y019517D01*
X017892Y019396D01*
X017816Y019212D01*
X017816Y018413D01*
X017892Y018229D01*
X018033Y018089D01*
X018217Y018012D01*
X018416Y018012D01*
X018600Y018089D01*
X018740Y018229D01*
X018816Y018413D01*
X018816Y019212D01*
X018740Y019396D01*
X018618Y019517D01*
X019014Y019517D01*
X018892Y019396D01*
X018816Y019212D01*
X018816Y018413D01*
X018892Y018229D01*
X019033Y018089D01*
X019217Y018012D01*
X019416Y018012D01*
X019600Y018089D01*
X019740Y018229D01*
X019816Y018413D01*
X019816Y019212D01*
X019740Y019396D01*
X019618Y019517D01*
X020021Y019517D01*
X020021Y017258D01*
X020007Y017272D01*
X019626Y017272D01*
X019446Y017092D01*
X019187Y017092D01*
X019007Y017272D01*
X018626Y017272D01*
X018356Y017003D01*
X018356Y016622D01*
X018536Y016442D01*
X018536Y016428D01*
X015756Y013648D01*
X015756Y013812D01*
X015317Y013812D01*
X015317Y013813D01*
X015756Y013813D01*
X015756Y013995D01*
X015499Y014252D01*
X015317Y014252D01*
X015317Y013813D01*
X015316Y013813D01*
X015316Y014252D01*
X015134Y014252D01*
X014876Y013995D01*
X014876Y013813D01*
X015316Y013813D01*
X015316Y013812D01*
X015317Y013812D01*
X015317Y013372D01*
X015480Y013372D01*
X015380Y013272D01*
X015126Y013272D01*
X014946Y013092D01*
X014932Y013092D01*
X013968Y014056D01*
X014036Y014221D01*
X014036Y014404D01*
X013966Y014573D01*
X013837Y014702D01*
X013668Y014772D01*
X013596Y014772D01*
X013596Y016368D01*
X013587Y016392D01*
X013626Y016352D01*
X014007Y016352D01*
X014276Y016622D01*
X014276Y017003D01*
X014007Y017272D01*
X013626Y017272D01*
X013356Y017003D01*
X013356Y016668D01*
X012776Y017248D01*
X012776Y017503D01*
X012507Y017772D01*
X012126Y017772D01*
X011946Y017592D01*
X010872Y017592D01*
X010761Y017592D01*
X010658Y017550D01*
X010445Y017337D01*
X010187Y017337D01*
X009475Y018050D01*
X009372Y018092D01*
X009261Y018092D01*
X008042Y018092D01*
X008040Y018096D01*
X007900Y018236D01*
X007716Y018312D01*
X006917Y018312D01*
X006733Y018236D01*
X006592Y018096D01*
X006516Y017912D01*
X006516Y017713D01*
X006592Y017529D01*
X006733Y017389D01*
X006917Y017312D01*
X007716Y017312D01*
X007900Y017389D01*
X008040Y017529D01*
X008042Y017532D01*
X009200Y017532D01*
X009395Y017337D01*
X009212Y017337D01*
X009019Y017257D01*
X008871Y017110D01*
X008791Y016917D01*
X008791Y016708D01*
X008871Y016515D01*
X009019Y016367D01*
X009036Y016360D01*
X009036Y015368D01*
X009036Y015257D01*
X009079Y015154D01*
X009158Y015075D01*
X009261Y015032D01*
X009761Y015032D01*
X009872Y015032D01*
X009975Y015075D01*
X010432Y015532D01*
X011761Y015532D01*
X011872Y015532D01*
X011975Y015575D01*
X012252Y015852D01*
X012507Y015852D01*
X012776Y016122D01*
X012776Y016457D01*
X013036Y016196D01*
X013036Y014772D01*
X012965Y014772D01*
X012796Y014702D01*
X012666Y014573D01*
X012596Y014404D01*
X012596Y014221D01*
X012666Y014052D01*
X012796Y013922D01*
X012965Y013852D01*
X013380Y013852D01*
X013480Y013752D01*
X013317Y013752D01*
X013317Y013313D01*
X013316Y013313D01*
X013316Y013752D01*
X013022Y013752D01*
X012953Y013742D01*
X012887Y013720D01*
X012826Y013689D01*
X012770Y013648D01*
X012721Y013599D01*
X012680Y013543D01*
X012649Y013481D01*
X012627Y013415D01*
X012616Y013347D01*
X012616Y013313D01*
X011036Y013313D01*
X011036Y013404D02*
X010966Y013573D01*
X010837Y013702D01*
X010668Y013772D01*
X009965Y013772D01*
X009796Y013702D01*
X009666Y013573D01*
X009596Y013404D01*
X009596Y013221D01*
X009666Y013052D01*
X009796Y012922D01*
X009965Y012852D01*
X010668Y012852D01*
X010837Y012922D01*
X010966Y013052D01*
X011036Y013221D01*
X011036Y013404D01*
X011008Y013472D02*
X012645Y013472D01*
X012616Y013313D02*
X013316Y013313D01*
X013317Y013313D01*
X013317Y013312D02*
X013317Y012872D01*
X013611Y012872D01*
X013679Y012883D01*
X013745Y012905D01*
X013807Y012936D01*
X013863Y012977D01*
X013912Y013026D01*
X013953Y013082D01*
X013984Y013144D01*
X014006Y013209D01*
X014008Y013225D01*
X014658Y012575D01*
X014761Y012532D01*
X014872Y012532D01*
X014946Y012532D01*
X015036Y012442D01*
X015036Y010928D01*
X013818Y009710D01*
X013668Y009772D01*
X012965Y009772D01*
X012796Y009702D01*
X012666Y009573D01*
X012604Y009421D01*
X012096Y009928D01*
X012096Y011868D01*
X012054Y011971D01*
X011975Y012050D01*
X011872Y012092D01*
X011761Y012092D01*
X010983Y012092D01*
X011036Y012221D01*
X011036Y012404D01*
X010966Y012573D01*
X010837Y012702D01*
X010668Y012772D01*
X009965Y012772D01*
X009796Y012702D01*
X009666Y012573D01*
X009596Y012404D01*
X009596Y012221D01*
X009650Y012092D01*
X007432Y012092D01*
X005074Y014451D01*
X004576Y016861D01*
X004576Y016888D01*
X004565Y016915D01*
X004559Y016944D01*
X004544Y016966D01*
X004534Y016991D01*
X004513Y017012D01*
X004497Y017036D01*
X004474Y017051D01*
X004455Y017070D01*
X004428Y017081D01*
X004404Y017097D01*
X004377Y017102D01*
X004352Y017112D01*
X004323Y017112D01*
X004294Y017118D01*
X004268Y017112D01*
X004043Y017112D01*
X003936Y017220D01*
X003767Y017290D01*
X003585Y017290D01*
X003417Y017220D01*
X003331Y017134D01*
X003246Y017220D01*
X003077Y017290D01*
X002895Y017290D01*
X002727Y017220D01*
X002599Y017092D01*
X002529Y016923D01*
X002529Y016741D01*
X002568Y016648D01*
X002514Y016639D01*
X002448Y016618D01*
X002387Y016587D01*
X002331Y016546D01*
X002283Y016497D01*
X002242Y016442D01*
X002211Y016380D01*
X002190Y016315D01*
X002179Y016247D01*
X002179Y016213D01*
X002616Y016213D01*
X002616Y016212D01*
X002617Y016212D01*
X002617Y015775D01*
X002651Y015775D01*
X002719Y015786D01*
X002784Y015807D01*
X002846Y015838D01*
X002901Y015879D01*
X002950Y015927D01*
X002952Y015930D01*
X003036Y015845D01*
X003036Y014655D01*
X002981Y014711D01*
X002651Y014711D01*
X002418Y014477D01*
X002418Y014148D01*
X002536Y014029D01*
X002536Y003257D01*
X002579Y003154D01*
X002658Y003075D01*
X003857Y001876D01*
X003746Y001765D01*
X003746Y000860D01*
X003814Y000792D01*
X001550Y000792D01*
X001639Y000829D01*
X001800Y000990D01*
X001886Y001199D01*
X001886Y001426D01*
X001800Y001635D01*
X001639Y001796D01*
X001599Y001812D01*
X001639Y001829D01*
X001800Y001990D01*
X001886Y002199D01*
X001886Y002426D01*
X001800Y002635D01*
X001639Y002796D01*
X001599Y002812D01*
X001639Y002829D01*
X001800Y002990D01*
X001886Y003199D01*
X001886Y003426D01*
X001800Y003635D01*
X001692Y003742D01*
X001769Y003742D01*
X001886Y003860D01*
X001886Y004765D01*
X001769Y004882D01*
X001296Y004882D01*
X001296Y005742D01*
X001430Y005742D01*
X001639Y005829D01*
X001800Y005990D01*
X001886Y006199D01*
X001886Y006426D01*
X001800Y006635D01*
X001639Y006796D01*
X001599Y006812D01*
X001639Y006829D01*
X001800Y006990D01*
X001886Y007199D01*
X001886Y007426D01*
X001800Y007635D01*
X001639Y007796D01*
X001599Y007812D01*
X001639Y007829D01*
X001800Y007990D01*
X001886Y008199D01*
X001886Y008426D01*
X001800Y008635D01*
X001692Y008742D01*
X001769Y008742D01*
X001886Y008860D01*
X001886Y009765D01*
X001769Y009882D01*
X001296Y009882D01*
X001296Y010742D01*
X001430Y010742D01*
X001639Y010829D01*
X001800Y010990D01*
X001886Y011199D01*
X001886Y011426D01*
X001800Y011635D01*
X001639Y011796D01*
X001599Y011812D01*
X001639Y011829D01*
X001800Y011990D01*
X001886Y012199D01*
X001886Y012426D01*
X001800Y012635D01*
X001639Y012796D01*
X001599Y012812D01*
X001639Y012829D01*
X001800Y012990D01*
X001886Y013199D01*
X001886Y013426D01*
X001800Y013635D01*
X001692Y013742D01*
X001769Y013742D01*
X001886Y013860D01*
X001886Y014765D01*
X001769Y014882D01*
X001296Y014882D01*
X001296Y017819D01*
X001296Y017594D02*
X001626Y017594D01*
X001296Y017435D02*
X006687Y017435D01*
X006566Y017594D02*
X005007Y017594D01*
X004905Y017551D02*
X005184Y017667D01*
X005399Y017881D01*
X005514Y018161D01*
X005514Y018464D01*
X005399Y018744D01*
X005184Y018958D01*
X004905Y019073D01*
X004602Y019073D01*
X004322Y018958D01*
X004108Y018744D01*
X003992Y018464D01*
X003992Y018161D01*
X004108Y017881D01*
X004322Y017667D01*
X004602Y017551D01*
X004905Y017551D01*
X004500Y017594D02*
X002133Y017594D01*
X002395Y017752D02*
X004237Y017752D01*
X004096Y017911D02*
X002537Y017911D01*
X002602Y018069D02*
X004030Y018069D01*
X003992Y018228D02*
X002640Y018228D01*
X002640Y018386D02*
X003992Y018386D01*
X004026Y018545D02*
X002607Y018545D01*
X002541Y018703D02*
X004092Y018703D01*
X004227Y018862D02*
X002406Y018862D01*
X002158Y019021D02*
X004474Y019021D01*
X005032Y019021D02*
X006561Y019021D01*
X006592Y019096D02*
X006516Y018912D01*
X006516Y018713D01*
X006592Y018529D01*
X006733Y018389D01*
X006917Y018312D01*
X007716Y018312D01*
X007900Y018389D01*
X008040Y018529D01*
X008042Y018532D01*
X008946Y018532D01*
X009126Y018352D01*
X009507Y018352D01*
X009776Y018622D01*
X009776Y019003D01*
X009507Y019272D01*
X009126Y019272D01*
X008946Y019092D01*
X008042Y019092D01*
X008040Y019096D01*
X007900Y019236D01*
X007716Y019312D01*
X006917Y019312D01*
X006733Y019236D01*
X006592Y019096D01*
X006676Y019179D02*
X001296Y019179D01*
X001296Y019021D02*
X001600Y019021D01*
X001353Y018862D02*
X001296Y018862D01*
X001296Y019338D02*
X013368Y019338D01*
X013316Y019179D02*
X012822Y019179D01*
X012749Y019252D02*
X012567Y019252D01*
X012567Y018813D01*
X013006Y018813D01*
X013006Y018995D01*
X012749Y019252D01*
X012566Y019252D02*
X012384Y019252D01*
X012126Y018995D01*
X012126Y018813D01*
X012566Y018813D01*
X012566Y019252D01*
X012566Y019179D02*
X012567Y019179D01*
X012566Y019021D02*
X012567Y019021D01*
X012566Y018862D02*
X012567Y018862D01*
X012567Y018813D02*
X012566Y018813D01*
X012566Y018812D01*
X012567Y018812D01*
X012567Y018813D01*
X012567Y018812D02*
X013006Y018812D01*
X013006Y018630D01*
X012749Y018372D01*
X012567Y018372D01*
X012567Y018812D01*
X012566Y018812D02*
X012566Y018372D01*
X012384Y018372D01*
X012126Y018630D01*
X012126Y018812D01*
X012566Y018812D01*
X012566Y018703D02*
X012567Y018703D01*
X012566Y018545D02*
X012567Y018545D01*
X012566Y018386D02*
X012567Y018386D01*
X012763Y018386D02*
X013327Y018386D01*
X013316Y018545D02*
X012921Y018545D01*
X013006Y018703D02*
X013316Y018703D01*
X013316Y018862D02*
X013006Y018862D01*
X012980Y019021D02*
X013316Y019021D01*
X013493Y019496D02*
X001296Y019496D01*
X001296Y017277D02*
X002863Y017277D01*
X003110Y017277D02*
X003553Y017277D01*
X003800Y017277D02*
X006892Y017277D01*
X006904Y017281D02*
X006832Y017257D01*
X006765Y017223D01*
X006704Y017179D01*
X006650Y017125D01*
X006606Y017064D01*
X006572Y016997D01*
X006548Y016925D01*
X006536Y016850D01*
X006536Y016832D01*
X007296Y016832D01*
X007296Y016792D01*
X007336Y016792D01*
X007336Y016332D01*
X007654Y016332D01*
X007729Y016344D01*
X007801Y016368D01*
X007868Y016402D01*
X007929Y016446D01*
X007982Y016500D01*
X008027Y016561D01*
X008061Y016628D01*
X008085Y016700D01*
X008096Y016775D01*
X008096Y016792D01*
X007337Y016792D01*
X007337Y016832D01*
X008096Y016832D01*
X008096Y016850D01*
X008085Y016925D01*
X008061Y016997D01*
X008027Y017064D01*
X007982Y017125D01*
X007929Y017179D01*
X007868Y017223D01*
X007801Y017257D01*
X007729Y017281D01*
X007654Y017292D01*
X007336Y017292D01*
X007336Y016833D01*
X007296Y016833D01*
X007296Y017292D01*
X006979Y017292D01*
X006904Y017281D01*
X006645Y017118D02*
X004038Y017118D01*
X004296Y016832D02*
X003676Y016832D01*
X004296Y016832D02*
X004816Y014312D01*
X007316Y011812D01*
X011816Y011812D01*
X011816Y009812D01*
X013316Y008312D01*
X013172Y007852D02*
X013668Y007852D01*
X013837Y007922D01*
X013966Y008052D01*
X014036Y008221D01*
X014036Y008404D01*
X013966Y008573D01*
X013837Y008702D01*
X013668Y008772D01*
X013252Y008772D01*
X013172Y008852D01*
X013668Y008852D01*
X013837Y008922D01*
X013966Y009052D01*
X013977Y009077D01*
X014876Y009977D01*
X014876Y009813D01*
X015316Y009813D01*
X015316Y010252D01*
X015152Y010252D01*
X015432Y010532D01*
X016446Y010532D01*
X016626Y010352D01*
X017007Y010352D01*
X017276Y010622D01*
X017276Y011003D01*
X017007Y011272D01*
X016626Y011272D01*
X016446Y011092D01*
X015596Y011092D01*
X015596Y012442D01*
X015776Y012622D01*
X015776Y012876D01*
X019054Y016154D01*
X019096Y016257D01*
X019096Y016368D01*
X019096Y016442D01*
X019187Y016532D01*
X019446Y016532D01*
X019626Y016352D01*
X020007Y016352D01*
X020021Y016367D01*
X020021Y012258D01*
X020007Y012272D01*
X019626Y012272D01*
X019356Y012003D01*
X019356Y011622D01*
X019536Y011442D01*
X019536Y011428D01*
X018658Y010550D01*
X018579Y010471D01*
X018536Y010368D01*
X018536Y007595D01*
X018418Y007477D01*
X018418Y007148D01*
X018651Y006914D01*
X018981Y006914D01*
X019214Y007148D01*
X019214Y007477D01*
X019096Y007595D01*
X019096Y010196D01*
X020021Y011122D01*
X020021Y009882D01*
X019364Y009882D01*
X019246Y009765D01*
X019246Y008860D01*
X019364Y008742D01*
X019440Y008742D01*
X019333Y008635D01*
X019246Y008426D01*
X019246Y008199D01*
X019333Y007990D01*
X019493Y007829D01*
X019534Y007812D01*
X019493Y007796D01*
X019333Y007635D01*
X019246Y007426D01*
X019246Y007199D01*
X019333Y006990D01*
X019493Y006829D01*
X019534Y006812D01*
X019493Y006796D01*
X019333Y006635D01*
X019246Y006426D01*
X019246Y006199D01*
X019333Y005990D01*
X019493Y005829D01*
X019703Y005742D01*
X019930Y005742D01*
X020021Y005780D01*
X020021Y004882D01*
X019364Y004882D01*
X019246Y004765D01*
X019246Y003860D01*
X019364Y003742D01*
X019440Y003742D01*
X019333Y003635D01*
X019246Y003426D01*
X019246Y003199D01*
X019333Y002990D01*
X019493Y002829D01*
X019563Y002800D01*
X019528Y002783D01*
X019458Y002732D01*
X019397Y002671D01*
X019346Y002601D01*
X019307Y002524D01*
X019280Y002441D01*
X019266Y002356D01*
X019266Y002332D01*
X019796Y002332D01*
X019796Y002292D01*
X019266Y002292D01*
X019266Y002269D01*
X019280Y002184D01*
X019307Y002101D01*
X019346Y002024D01*
X019397Y001954D01*
X019458Y001893D01*
X019528Y001842D01*
X019563Y001824D01*
X019493Y001796D01*
X019333Y001635D01*
X019246Y001426D01*
X019246Y001199D01*
X019333Y000990D01*
X019493Y000829D01*
X019582Y000792D01*
X009596Y000792D01*
X009596Y001196D01*
X009604Y001204D01*
X009666Y001052D01*
X009796Y000922D01*
X009965Y000852D01*
X010668Y000852D01*
X010837Y000922D01*
X010966Y001052D01*
X011036Y001221D01*
X011036Y001404D01*
X010966Y001573D01*
X010837Y001702D01*
X010668Y001772D01*
X010172Y001772D01*
X010252Y001852D01*
X010668Y001852D01*
X010837Y001922D01*
X010966Y002052D01*
X011036Y002221D01*
X011036Y002404D01*
X010966Y002573D01*
X010837Y002702D01*
X010668Y002772D01*
X009965Y002772D01*
X009796Y002702D01*
X009666Y002573D01*
X009596Y002404D01*
X009596Y002221D01*
X009665Y002056D01*
X009664Y002056D02*
X008596Y002056D01*
X008596Y001898D02*
X009506Y001898D01*
X009665Y002056D02*
X009158Y001550D01*
X009079Y001471D01*
X009036Y001368D01*
X009036Y000842D01*
X008652Y000842D01*
X008800Y000990D01*
X008886Y001199D01*
X008886Y001426D01*
X008800Y001635D01*
X008639Y001796D01*
X008596Y001813D01*
X008596Y003696D01*
X009475Y004575D01*
X009554Y004654D01*
X009596Y004757D01*
X009596Y007637D01*
X009658Y007575D01*
X009693Y007561D01*
X009680Y007543D01*
X009649Y007481D01*
X009627Y007415D01*
X009616Y007347D01*
X009616Y007313D01*
X010316Y007313D01*
X010316Y007312D01*
X010317Y007312D01*
X010317Y007313D01*
X011016Y007313D01*
X011016Y007347D01*
X011006Y007415D01*
X010984Y007481D01*
X010958Y007532D01*
X012650Y007532D01*
X012596Y007404D01*
X012596Y007221D01*
X012666Y007052D01*
X012796Y006922D01*
X012965Y006852D01*
X013668Y006852D01*
X013837Y006922D01*
X013966Y007052D01*
X014036Y007221D01*
X014036Y007404D01*
X013966Y007573D01*
X013837Y007702D01*
X013668Y007772D01*
X013252Y007772D01*
X013172Y007852D01*
X012816Y007812D02*
X013316Y007312D01*
X012965Y006772D02*
X012796Y006702D01*
X012666Y006573D01*
X012596Y006404D01*
X012596Y006221D01*
X012666Y006052D01*
X012796Y005922D01*
X012965Y005852D01*
X013668Y005852D01*
X013837Y005922D01*
X013966Y006052D01*
X014036Y006221D01*
X014036Y006404D01*
X013966Y006573D01*
X013837Y006702D01*
X013668Y006772D01*
X012965Y006772D01*
X012748Y006654D02*
X010885Y006654D01*
X010837Y006702D02*
X010668Y006772D01*
X009965Y006772D01*
X009796Y006702D01*
X009666Y006573D01*
X009596Y006404D01*
X009596Y006221D01*
X009666Y006052D01*
X009796Y005922D01*
X009965Y005852D01*
X010668Y005852D01*
X010837Y005922D01*
X010966Y006052D01*
X011036Y006221D01*
X011036Y006404D01*
X010966Y006573D01*
X010837Y006702D01*
X010745Y006905D02*
X010807Y006936D01*
X010863Y006977D01*
X010912Y007026D01*
X010953Y007082D01*
X010984Y007144D01*
X011006Y007209D01*
X011016Y007278D01*
X011016Y007312D01*
X010317Y007312D01*
X010317Y006872D01*
X010611Y006872D01*
X010679Y006883D01*
X010745Y006905D01*
X010855Y006971D02*
X012747Y006971D01*
X012634Y007130D02*
X010977Y007130D01*
X011016Y007288D02*
X012596Y007288D01*
X012614Y007447D02*
X010995Y007447D01*
X010316Y007312D02*
X010316Y006872D01*
X010022Y006872D01*
X009953Y006883D01*
X009887Y006905D01*
X009826Y006936D01*
X009770Y006977D01*
X009721Y007026D01*
X009680Y007082D01*
X009649Y007144D01*
X009627Y007209D01*
X009616Y007278D01*
X009616Y007312D01*
X010316Y007312D01*
X010316Y007288D02*
X010317Y007288D01*
X010316Y007130D02*
X010317Y007130D01*
X010316Y006971D02*
X010317Y006971D01*
X009777Y006971D02*
X009596Y006971D01*
X009596Y006813D02*
X014884Y006813D01*
X014909Y006837D02*
X014791Y006720D01*
X014791Y005905D01*
X014909Y005787D01*
X015724Y005787D01*
X015841Y005905D01*
X015841Y006720D01*
X015724Y006837D01*
X015488Y006837D01*
X015510Y006844D01*
X015581Y006881D01*
X015645Y006927D01*
X015702Y006983D01*
X015748Y007048D01*
X015784Y007119D01*
X015809Y007194D01*
X015821Y007273D01*
X015821Y007312D01*
X015317Y007312D01*
X015317Y007313D01*
X015821Y007313D01*
X015821Y007352D01*
X015809Y007431D01*
X015784Y007506D01*
X015748Y007577D01*
X015702Y007641D01*
X015645Y007698D01*
X015581Y007744D01*
X015510Y007780D01*
X015435Y007805D01*
X015356Y007817D01*
X015317Y007817D01*
X015317Y007313D01*
X015316Y007313D01*
X015316Y007817D01*
X015277Y007817D01*
X015198Y007805D01*
X015123Y007780D01*
X015052Y007744D01*
X014987Y007698D01*
X014931Y007641D01*
X014884Y007577D01*
X014848Y007506D01*
X014824Y007431D01*
X014811Y007352D01*
X014811Y007313D01*
X015316Y007313D01*
X015316Y007312D01*
X014811Y007312D01*
X014811Y007273D01*
X014824Y007194D01*
X014848Y007119D01*
X014884Y007048D01*
X014931Y006983D01*
X014987Y006927D01*
X015052Y006881D01*
X015123Y006844D01*
X015144Y006837D01*
X014909Y006837D01*
X014943Y006971D02*
X013886Y006971D01*
X013999Y007130D02*
X014845Y007130D01*
X014811Y007288D02*
X014036Y007288D01*
X014019Y007447D02*
X014829Y007447D01*
X014905Y007605D02*
X013934Y007605D01*
X013837Y007923D02*
X018536Y007923D01*
X018536Y008081D02*
X013978Y008081D01*
X014036Y008240D02*
X018536Y008240D01*
X018536Y008398D02*
X015553Y008398D01*
X015507Y008352D02*
X015776Y008622D01*
X015776Y009003D01*
X015507Y009272D01*
X015126Y009272D01*
X014856Y009003D01*
X014856Y008622D01*
X015126Y008352D01*
X015507Y008352D01*
X015711Y008557D02*
X018536Y008557D01*
X018536Y008715D02*
X015776Y008715D01*
X015776Y008874D02*
X018536Y008874D01*
X018536Y009032D02*
X015747Y009032D01*
X015588Y009191D02*
X018536Y009191D01*
X018536Y009349D02*
X014249Y009349D01*
X014091Y009191D02*
X015044Y009191D01*
X015134Y009372D02*
X015316Y009372D01*
X015316Y009812D01*
X015317Y009812D01*
X015317Y009813D01*
X015756Y009813D01*
X015756Y009995D01*
X015499Y010252D01*
X015317Y010252D01*
X015317Y009813D01*
X015316Y009813D01*
X015316Y009812D01*
X014876Y009812D01*
X014876Y009630D01*
X015134Y009372D01*
X015317Y009372D02*
X015499Y009372D01*
X015756Y009630D01*
X015756Y009812D01*
X015317Y009812D01*
X015317Y009372D01*
X015316Y009508D02*
X015317Y009508D01*
X015316Y009666D02*
X015317Y009666D01*
X015316Y009825D02*
X015317Y009825D01*
X015316Y009984D02*
X015317Y009984D01*
X015316Y010142D02*
X015317Y010142D01*
X015201Y010301D02*
X018536Y010301D01*
X018536Y010142D02*
X015609Y010142D01*
X015756Y009984D02*
X018536Y009984D01*
X018536Y009825D02*
X015756Y009825D01*
X015756Y009666D02*
X018536Y009666D01*
X018536Y009508D02*
X015634Y009508D01*
X014999Y009508D02*
X014408Y009508D01*
X014566Y009666D02*
X014876Y009666D01*
X014876Y009825D02*
X014725Y009825D01*
X014250Y010142D02*
X014004Y010142D01*
X014036Y010221D02*
X013966Y010052D01*
X013837Y009922D01*
X013668Y009852D01*
X012965Y009852D01*
X012796Y009922D01*
X012666Y010052D01*
X012596Y010221D01*
X012596Y010404D01*
X012666Y010573D01*
X012796Y010702D01*
X012965Y010772D01*
X013668Y010772D01*
X013837Y010702D01*
X013966Y010573D01*
X014036Y010404D01*
X014036Y010221D01*
X014036Y010301D02*
X014409Y010301D01*
X014567Y010459D02*
X014013Y010459D01*
X013922Y010618D02*
X014726Y010618D01*
X014884Y010776D02*
X012096Y010776D01*
X012096Y010618D02*
X012711Y010618D01*
X012619Y010459D02*
X012096Y010459D01*
X012096Y010301D02*
X012596Y010301D01*
X012629Y010142D02*
X012096Y010142D01*
X012096Y009984D02*
X012735Y009984D01*
X012760Y009666D02*
X012358Y009666D01*
X012517Y009508D02*
X012639Y009508D01*
X012200Y009825D02*
X013933Y009825D01*
X013898Y009984D02*
X014092Y009984D01*
X013816Y009312D02*
X013316Y009312D01*
X013816Y009312D02*
X015316Y010812D01*
X015316Y012812D01*
X018816Y016312D01*
X018816Y016812D01*
X019816Y016812D01*
X019494Y016484D02*
X019138Y016484D01*
X019096Y016325D02*
X020021Y016325D01*
X020021Y016167D02*
X019059Y016167D01*
X018908Y016008D02*
X020021Y016008D01*
X020021Y015850D02*
X018750Y015850D01*
X018591Y015691D02*
X020021Y015691D01*
X020021Y015533D02*
X018432Y015533D01*
X018274Y015374D02*
X020021Y015374D01*
X020021Y015216D02*
X018115Y015216D01*
X017957Y015057D02*
X020021Y015057D01*
X020021Y014898D02*
X017798Y014898D01*
X017640Y014740D02*
X020021Y014740D01*
X020021Y014581D02*
X017481Y014581D01*
X017323Y014423D02*
X020021Y014423D01*
X020021Y014264D02*
X017164Y014264D01*
X017006Y014106D02*
X020021Y014106D01*
X020021Y013947D02*
X016847Y013947D01*
X016688Y013789D02*
X020021Y013789D01*
X020021Y013630D02*
X016530Y013630D01*
X016371Y013472D02*
X020021Y013472D01*
X020021Y013313D02*
X016213Y013313D01*
X016054Y013154D02*
X020021Y013154D01*
X020021Y012996D02*
X015896Y012996D01*
X015776Y012837D02*
X020021Y012837D01*
X020021Y012679D02*
X015776Y012679D01*
X015675Y012520D02*
X020021Y012520D01*
X020021Y012362D02*
X015596Y012362D01*
X015596Y012203D02*
X019557Y012203D01*
X019398Y012045D02*
X015596Y012045D01*
X015596Y011886D02*
X019356Y011886D01*
X019356Y011728D02*
X018052Y011728D01*
X018007Y011772D02*
X017626Y011772D01*
X017356Y011503D01*
X017356Y011122D01*
X017626Y010852D01*
X018007Y010852D01*
X018276Y011122D01*
X018276Y011503D01*
X018007Y011772D01*
X018210Y011569D02*
X019409Y011569D01*
X019518Y011410D02*
X018276Y011410D01*
X018276Y011252D02*
X019360Y011252D01*
X019201Y011093D02*
X018248Y011093D01*
X018089Y010935D02*
X019043Y010935D01*
X018884Y010776D02*
X017276Y010776D01*
X017272Y010618D02*
X018726Y010618D01*
X018574Y010459D02*
X017114Y010459D01*
X016816Y010812D02*
X015316Y010812D01*
X015036Y010935D02*
X013849Y010935D01*
X013837Y010922D02*
X013966Y011052D01*
X014036Y011221D01*
X014036Y011404D01*
X013966Y011573D01*
X013837Y011702D01*
X013668Y011772D01*
X012965Y011772D01*
X012796Y011702D01*
X012666Y011573D01*
X012596Y011404D01*
X012596Y011221D01*
X012666Y011052D01*
X012796Y010922D01*
X012965Y010852D01*
X013668Y010852D01*
X013837Y010922D01*
X013984Y011093D02*
X015036Y011093D01*
X015036Y011252D02*
X014036Y011252D01*
X014034Y011410D02*
X015036Y011410D01*
X015036Y011569D02*
X013968Y011569D01*
X013776Y011728D02*
X015036Y011728D01*
X015036Y011886D02*
X013749Y011886D01*
X013668Y011852D02*
X013837Y011922D01*
X013966Y012052D01*
X014036Y012221D01*
X014036Y012404D01*
X013966Y012573D01*
X013837Y012702D01*
X013668Y012772D01*
X012965Y012772D01*
X012796Y012702D01*
X012666Y012573D01*
X012596Y012404D01*
X012596Y012221D01*
X012666Y012052D01*
X012796Y011922D01*
X012965Y011852D01*
X013668Y011852D01*
X013959Y012045D02*
X015036Y012045D01*
X015036Y012203D02*
X014029Y012203D01*
X014036Y012362D02*
X015036Y012362D01*
X014958Y012520D02*
X013988Y012520D01*
X013860Y012679D02*
X014554Y012679D01*
X014395Y012837D02*
X006687Y012837D01*
X006846Y012679D02*
X009772Y012679D01*
X009645Y012520D02*
X007004Y012520D01*
X007163Y012362D02*
X009596Y012362D01*
X009604Y012203D02*
X007322Y012203D01*
X006529Y012996D02*
X009722Y012996D01*
X009624Y013154D02*
X006370Y013154D01*
X006212Y013313D02*
X009596Y013313D01*
X009624Y013472D02*
X006053Y013472D01*
X005895Y013630D02*
X009724Y013630D01*
X009796Y013922D02*
X009666Y014052D01*
X009596Y014221D01*
X009596Y014404D01*
X009666Y014573D01*
X009796Y014702D01*
X009965Y014772D01*
X010668Y014772D01*
X010837Y014702D01*
X010966Y014573D01*
X011036Y014404D01*
X011036Y014221D01*
X010966Y014052D01*
X010837Y013922D01*
X010668Y013852D01*
X009965Y013852D01*
X009796Y013922D01*
X009771Y013947D02*
X005578Y013947D01*
X005736Y013789D02*
X013444Y013789D01*
X013317Y013630D02*
X013316Y013630D01*
X013316Y013472D02*
X013317Y013472D01*
X013316Y013313D02*
X013316Y013312D01*
X013317Y013312D01*
X013316Y013312D02*
X013316Y012872D01*
X013022Y012872D01*
X012953Y012883D01*
X012887Y012905D01*
X012826Y012936D01*
X012770Y012977D01*
X012721Y013026D01*
X012680Y013082D01*
X012649Y013144D01*
X012627Y013209D01*
X012616Y013278D01*
X012616Y013312D01*
X013316Y013312D01*
X013316Y013154D02*
X013317Y013154D01*
X013316Y012996D02*
X013317Y012996D01*
X013882Y012996D02*
X014237Y012996D01*
X014078Y013154D02*
X013988Y013154D01*
X014395Y013630D02*
X014876Y013630D01*
X015134Y013372D01*
X015316Y013372D01*
X015316Y013812D01*
X014876Y013812D01*
X014876Y013630D01*
X014876Y013789D02*
X014236Y013789D01*
X014078Y013947D02*
X014876Y013947D01*
X014987Y014106D02*
X013989Y014106D01*
X014036Y014264D02*
X016372Y014264D01*
X016214Y014106D02*
X015645Y014106D01*
X015756Y013947D02*
X016055Y013947D01*
X015897Y013789D02*
X015756Y013789D01*
X015317Y013789D02*
X015316Y013789D01*
X015316Y013947D02*
X015317Y013947D01*
X015316Y014106D02*
X015317Y014106D01*
X015316Y013630D02*
X015317Y013630D01*
X015316Y013472D02*
X015317Y013472D01*
X015421Y013313D02*
X014712Y013313D01*
X014870Y013154D02*
X015008Y013154D01*
X015035Y013472D02*
X014553Y013472D01*
X014816Y012812D02*
X013316Y014312D01*
X013316Y016312D01*
X012316Y017312D01*
X010816Y017312D01*
X010316Y016812D01*
X009316Y017812D01*
X007316Y017812D01*
X007296Y017277D02*
X007336Y017277D01*
X007336Y017118D02*
X007296Y017118D01*
X007296Y016959D02*
X007336Y016959D01*
X007337Y016801D02*
X008791Y016801D01*
X008809Y016959D02*
X008073Y016959D01*
X007988Y017118D02*
X008880Y017118D01*
X009065Y017277D02*
X007741Y017277D01*
X007946Y017435D02*
X009298Y017435D01*
X009773Y017752D02*
X012106Y017752D01*
X011947Y017594D02*
X009931Y017594D01*
X010090Y017435D02*
X010543Y017435D01*
X010499Y018372D02*
X010317Y018372D01*
X010317Y018812D01*
X010317Y018813D01*
X010756Y018813D01*
X010756Y018995D01*
X010499Y019252D01*
X010317Y019252D01*
X010317Y018813D01*
X010316Y018813D01*
X010316Y019252D01*
X010134Y019252D01*
X009876Y018995D01*
X009876Y018813D01*
X010316Y018813D01*
X010316Y018812D01*
X010317Y018812D01*
X010756Y018812D01*
X010756Y018630D01*
X010499Y018372D01*
X010513Y018386D02*
X011342Y018386D01*
X011376Y018352D02*
X011757Y018352D01*
X012026Y018622D01*
X012026Y019003D01*
X011757Y019272D01*
X011376Y019272D01*
X011106Y019003D01*
X011106Y018622D01*
X011376Y018352D01*
X011183Y018545D02*
X010671Y018545D01*
X010756Y018703D02*
X011106Y018703D01*
X011106Y018862D02*
X010756Y018862D01*
X010730Y019021D02*
X011124Y019021D01*
X011283Y019179D02*
X010572Y019179D01*
X010317Y019179D02*
X010316Y019179D01*
X010316Y019021D02*
X010317Y019021D01*
X010316Y018862D02*
X010317Y018862D01*
X010316Y018812D02*
X009876Y018812D01*
X009876Y018630D01*
X010134Y018372D01*
X010316Y018372D01*
X010316Y018812D01*
X010316Y018703D02*
X010317Y018703D01*
X010316Y018545D02*
X010317Y018545D01*
X010316Y018386D02*
X010317Y018386D01*
X010120Y018386D02*
X009541Y018386D01*
X009699Y018545D02*
X009962Y018545D01*
X009876Y018703D02*
X009776Y018703D01*
X009776Y018862D02*
X009876Y018862D01*
X009902Y019021D02*
X009759Y019021D01*
X009600Y019179D02*
X010061Y019179D01*
X009316Y018812D02*
X007316Y018812D01*
X006738Y018386D02*
X005514Y018386D01*
X005514Y018228D02*
X006725Y018228D01*
X006582Y018069D02*
X005476Y018069D01*
X005411Y017911D02*
X006516Y017911D01*
X006516Y017752D02*
X005269Y017752D01*
X005481Y018545D02*
X006586Y018545D01*
X006520Y018703D02*
X005415Y018703D01*
X005280Y018862D02*
X006516Y018862D01*
X007894Y018386D02*
X009092Y018386D01*
X009428Y018069D02*
X013580Y018069D01*
X013394Y018228D02*
X007908Y018228D01*
X007957Y019179D02*
X009033Y019179D01*
X009614Y017911D02*
X020021Y017911D01*
X020021Y018069D02*
X019553Y018069D01*
X019739Y018228D02*
X020021Y018228D01*
X020021Y018386D02*
X019805Y018386D01*
X019816Y018545D02*
X020021Y018545D01*
X020021Y018703D02*
X019816Y018703D01*
X019816Y018862D02*
X020021Y018862D01*
X020021Y019021D02*
X019816Y019021D01*
X019816Y019179D02*
X020021Y019179D01*
X020021Y019338D02*
X019764Y019338D01*
X019640Y019496D02*
X020021Y019496D01*
X018993Y019496D02*
X018640Y019496D01*
X018764Y019338D02*
X018868Y019338D01*
X018816Y019179D02*
X018816Y019179D01*
X018816Y019021D02*
X018816Y019021D01*
X018816Y018862D02*
X018816Y018862D01*
X018816Y018703D02*
X018816Y018703D01*
X018816Y018545D02*
X018816Y018545D01*
X018805Y018386D02*
X018827Y018386D01*
X018894Y018228D02*
X018739Y018228D01*
X018553Y018069D02*
X019080Y018069D01*
X019161Y017118D02*
X019471Y017118D01*
X020021Y017277D02*
X012776Y017277D01*
X012776Y017435D02*
X020021Y017435D01*
X020021Y017594D02*
X012686Y017594D01*
X012527Y017752D02*
X020021Y017752D01*
X018471Y017118D02*
X014161Y017118D01*
X014276Y016959D02*
X018356Y016959D01*
X018356Y016801D02*
X014276Y016801D01*
X014276Y016642D02*
X018356Y016642D01*
X018494Y016484D02*
X014138Y016484D01*
X013596Y016325D02*
X018433Y016325D01*
X018275Y016167D02*
X017113Y016167D01*
X017007Y016272D02*
X017276Y016003D01*
X017276Y015622D01*
X017007Y015352D01*
X016626Y015352D01*
X016356Y015622D01*
X016356Y016003D01*
X016626Y016272D01*
X017007Y016272D01*
X017271Y016008D02*
X018116Y016008D01*
X017958Y015850D02*
X017276Y015850D01*
X017276Y015691D02*
X017799Y015691D01*
X017641Y015533D02*
X017187Y015533D01*
X017029Y015374D02*
X017482Y015374D01*
X017324Y015216D02*
X013596Y015216D01*
X013596Y015374D02*
X016604Y015374D01*
X016446Y015533D02*
X013596Y015533D01*
X013596Y015691D02*
X016356Y015691D01*
X016356Y015850D02*
X013596Y015850D01*
X013596Y016008D02*
X016362Y016008D01*
X016520Y016167D02*
X013596Y016167D01*
X013036Y016167D02*
X012776Y016167D01*
X012776Y016325D02*
X012908Y016325D01*
X013036Y016008D02*
X012663Y016008D01*
X013036Y015850D02*
X012250Y015850D01*
X012091Y015691D02*
X013036Y015691D01*
X013036Y015533D02*
X011872Y015533D01*
X011816Y015812D02*
X012316Y016312D01*
X011816Y015812D02*
X010316Y015812D01*
X009816Y015312D01*
X009316Y015312D01*
X009316Y016812D01*
X008902Y016484D02*
X007967Y016484D01*
X008066Y016642D02*
X008819Y016642D01*
X009036Y016325D02*
X004687Y016325D01*
X004720Y016167D02*
X009036Y016167D01*
X009036Y016008D02*
X004752Y016008D01*
X004785Y015850D02*
X009036Y015850D01*
X009036Y015691D02*
X004818Y015691D01*
X004850Y015533D02*
X009036Y015533D01*
X009036Y015374D02*
X004883Y015374D01*
X004916Y015216D02*
X009053Y015216D01*
X009201Y015057D02*
X004949Y015057D01*
X004981Y014898D02*
X013036Y014898D01*
X013036Y015057D02*
X009931Y015057D01*
X010115Y015216D02*
X013036Y015216D01*
X013036Y015374D02*
X010274Y015374D01*
X009886Y014740D02*
X005014Y014740D01*
X005047Y014581D02*
X009675Y014581D01*
X009604Y014423D02*
X005102Y014423D01*
X005260Y014264D02*
X009596Y014264D01*
X009644Y014106D02*
X005419Y014106D01*
X004066Y014312D02*
X004066Y016132D01*
X003986Y016212D01*
X003316Y016212D02*
X003316Y014312D01*
X009816Y007812D01*
X012816Y007812D01*
X013688Y007764D02*
X015090Y007764D01*
X015316Y007764D02*
X015317Y007764D01*
X015316Y007605D02*
X015317Y007605D01*
X015316Y007447D02*
X015317Y007447D01*
X015542Y007764D02*
X018536Y007764D01*
X018536Y007605D02*
X015728Y007605D01*
X015804Y007447D02*
X018418Y007447D01*
X018418Y007288D02*
X015821Y007288D01*
X015788Y007130D02*
X016483Y007130D01*
X016356Y007003D02*
X016626Y007272D01*
X017007Y007272D01*
X017276Y007003D01*
X017276Y006622D01*
X017007Y006352D01*
X016626Y006352D01*
X016356Y006622D01*
X016356Y007003D01*
X016356Y006971D02*
X015689Y006971D01*
X015749Y006813D02*
X016356Y006813D01*
X016356Y006654D02*
X015841Y006654D01*
X015841Y006496D02*
X016483Y006496D01*
X015841Y006337D02*
X017356Y006337D01*
X017356Y006179D02*
X015841Y006179D01*
X015841Y006020D02*
X017458Y006020D01*
X017356Y006122D02*
X017626Y005852D01*
X018007Y005852D01*
X018276Y006122D01*
X018276Y006503D01*
X018007Y006772D01*
X017626Y006772D01*
X017356Y006503D01*
X017356Y006122D01*
X017356Y006496D02*
X017150Y006496D01*
X017276Y006654D02*
X017508Y006654D01*
X017276Y006813D02*
X019533Y006813D01*
X019352Y006654D02*
X018125Y006654D01*
X018276Y006496D02*
X019275Y006496D01*
X019246Y006337D02*
X018276Y006337D01*
X018276Y006179D02*
X019255Y006179D01*
X019321Y006020D02*
X018174Y006020D01*
X018016Y005861D02*
X019461Y005861D01*
X020021Y005703D02*
X013779Y005703D01*
X013807Y005689D02*
X013745Y005720D01*
X013679Y005742D01*
X013611Y005752D01*
X013317Y005752D01*
X013317Y005313D01*
X014016Y005313D01*
X014016Y005347D01*
X014006Y005415D01*
X013984Y005481D01*
X013953Y005543D01*
X013912Y005599D01*
X013863Y005648D01*
X013807Y005689D01*
X013952Y005544D02*
X020021Y005544D01*
X020021Y005386D02*
X014010Y005386D01*
X014016Y005312D02*
X013317Y005312D01*
X013317Y005313D01*
X013316Y005313D01*
X013316Y005752D01*
X013022Y005752D01*
X012953Y005742D01*
X012887Y005720D01*
X012826Y005689D01*
X012770Y005648D01*
X012721Y005599D01*
X012680Y005543D01*
X012649Y005481D01*
X012627Y005415D01*
X012616Y005347D01*
X012616Y005313D01*
X013316Y005313D01*
X013316Y005312D01*
X013317Y005312D01*
X013317Y004872D01*
X013611Y004872D01*
X013679Y004883D01*
X013745Y004905D01*
X013807Y004936D01*
X013863Y004977D01*
X013912Y005026D01*
X013953Y005082D01*
X013984Y005144D01*
X014006Y005209D01*
X014016Y005278D01*
X014016Y005312D01*
X014008Y005227D02*
X015081Y005227D01*
X015126Y005272D02*
X014856Y005003D01*
X014856Y004622D01*
X015126Y004352D01*
X015507Y004352D01*
X015776Y004622D01*
X015776Y005003D01*
X015507Y005272D01*
X015126Y005272D01*
X014922Y005069D02*
X013943Y005069D01*
X013756Y004910D02*
X014856Y004910D01*
X014856Y004752D02*
X013718Y004752D01*
X013668Y004772D02*
X013837Y004702D01*
X013966Y004573D01*
X014036Y004404D01*
X014036Y004221D01*
X013966Y004052D01*
X013837Y003922D01*
X013668Y003852D01*
X012965Y003852D01*
X012796Y003922D01*
X012666Y004052D01*
X012596Y004221D01*
X012596Y004404D01*
X012666Y004573D01*
X012796Y004702D01*
X012965Y004772D01*
X013668Y004772D01*
X013316Y004872D02*
X013316Y005312D01*
X012616Y005312D01*
X012616Y005278D01*
X012627Y005209D01*
X012649Y005144D01*
X012680Y005082D01*
X012721Y005026D01*
X012770Y004977D01*
X012826Y004936D01*
X012887Y004905D01*
X012953Y004883D01*
X013022Y004872D01*
X013316Y004872D01*
X013316Y004910D02*
X013317Y004910D01*
X013316Y005069D02*
X013317Y005069D01*
X013316Y005227D02*
X013317Y005227D01*
X013316Y005386D02*
X013317Y005386D01*
X013316Y005544D02*
X013317Y005544D01*
X013316Y005703D02*
X013317Y005703D01*
X013690Y005861D02*
X014834Y005861D01*
X014791Y006020D02*
X013934Y006020D01*
X014019Y006179D02*
X014791Y006179D01*
X014791Y006337D02*
X014036Y006337D01*
X013998Y006496D02*
X014791Y006496D01*
X014791Y006654D02*
X013885Y006654D01*
X012943Y005861D02*
X011714Y005861D01*
X011714Y005892D02*
X011654Y006038D01*
X011542Y006150D01*
X011396Y006211D01*
X011237Y006211D01*
X011091Y006150D01*
X010979Y006038D01*
X010918Y005892D01*
X010918Y005733D01*
X010979Y005587D01*
X011036Y005529D01*
X011036Y003257D01*
X011079Y003154D01*
X011158Y003075D01*
X012665Y001568D01*
X012596Y001404D01*
X012596Y001221D01*
X012666Y001052D01*
X012796Y000922D01*
X012965Y000852D01*
X013668Y000852D01*
X013837Y000922D01*
X013966Y001052D01*
X014036Y001221D01*
X014036Y001404D01*
X013966Y001573D01*
X013837Y001702D01*
X013668Y001772D01*
X013252Y001772D01*
X013172Y001852D01*
X013668Y001852D01*
X013837Y001922D01*
X013966Y002052D01*
X014036Y002221D01*
X014036Y002404D01*
X013966Y002573D01*
X013837Y002702D01*
X013668Y002772D01*
X012965Y002772D01*
X012796Y002702D01*
X012666Y002573D01*
X012604Y002421D01*
X011596Y003428D01*
X011596Y005529D01*
X011654Y005587D01*
X011714Y005733D01*
X011714Y005892D01*
X011661Y006020D02*
X012698Y006020D01*
X012614Y006179D02*
X011473Y006179D01*
X011160Y006179D02*
X011019Y006179D01*
X011036Y006337D02*
X012596Y006337D01*
X012634Y006496D02*
X010998Y006496D01*
X010971Y006020D02*
X010934Y006020D01*
X010918Y005861D02*
X010690Y005861D01*
X010668Y005772D02*
X010837Y005702D01*
X010966Y005573D01*
X011036Y005404D01*
X011036Y005221D01*
X010966Y005052D01*
X010837Y004922D01*
X010668Y004852D01*
X009965Y004852D01*
X009796Y004922D01*
X009666Y005052D01*
X009596Y005221D01*
X009596Y005404D01*
X009666Y005573D01*
X009796Y005702D01*
X009965Y005772D01*
X010668Y005772D01*
X010836Y005703D02*
X010931Y005703D01*
X010978Y005544D02*
X011021Y005544D01*
X011036Y005386D02*
X011036Y005386D01*
X011036Y005227D02*
X011036Y005227D01*
X011036Y005069D02*
X010973Y005069D01*
X011036Y004910D02*
X010807Y004910D01*
X010718Y004752D02*
X011036Y004752D01*
X011036Y004593D02*
X010946Y004593D01*
X010966Y004573D02*
X010837Y004702D01*
X010668Y004772D01*
X009965Y004772D01*
X009796Y004702D01*
X009666Y004573D01*
X009596Y004404D01*
X009596Y004221D01*
X009666Y004052D01*
X009796Y003922D01*
X009965Y003852D01*
X010668Y003852D01*
X010837Y003922D01*
X010966Y004052D01*
X011036Y004221D01*
X011036Y004404D01*
X010966Y004573D01*
X011024Y004435D02*
X011036Y004435D01*
X011036Y004276D02*
X011036Y004276D01*
X011036Y004117D02*
X010993Y004117D01*
X011036Y003959D02*
X010873Y003959D01*
X011036Y003800D02*
X008700Y003800D01*
X008596Y003642D02*
X009735Y003642D01*
X009796Y003702D02*
X009666Y003573D01*
X009596Y003404D01*
X009596Y003221D01*
X009666Y003052D01*
X009796Y002922D01*
X009965Y002852D01*
X010668Y002852D01*
X010837Y002922D01*
X010966Y003052D01*
X011036Y003221D01*
X011036Y003404D01*
X010966Y003573D01*
X010837Y003702D01*
X010668Y003772D01*
X009965Y003772D01*
X009796Y003702D01*
X009759Y003959D02*
X008859Y003959D01*
X009017Y004117D02*
X009639Y004117D01*
X009596Y004276D02*
X009176Y004276D01*
X009334Y004435D02*
X009609Y004435D01*
X009687Y004593D02*
X009493Y004593D01*
X009475Y004575D02*
X009475Y004575D01*
X009594Y004752D02*
X009915Y004752D01*
X009825Y004910D02*
X009596Y004910D01*
X009596Y005069D02*
X009659Y005069D01*
X009596Y005227D02*
X009596Y005227D01*
X009596Y005386D02*
X009596Y005386D01*
X009596Y005544D02*
X009655Y005544D01*
X009596Y005703D02*
X009797Y005703D01*
X009943Y005861D02*
X009596Y005861D01*
X009596Y006020D02*
X009698Y006020D01*
X009614Y006179D02*
X009596Y006179D01*
X009596Y006337D02*
X009596Y006337D01*
X009596Y006496D02*
X009634Y006496D01*
X009596Y006654D02*
X009748Y006654D01*
X009656Y007130D02*
X009596Y007130D01*
X009596Y007288D02*
X009616Y007288D01*
X009596Y007447D02*
X009637Y007447D01*
X009627Y007605D02*
X009596Y007605D01*
X009036Y007605D02*
X008530Y007605D01*
X008540Y007596D02*
X008400Y007736D01*
X008216Y007812D01*
X007417Y007812D01*
X007233Y007736D01*
X007092Y007596D01*
X007016Y007412D01*
X007016Y007213D01*
X007092Y007029D01*
X007233Y006889D01*
X007417Y006812D01*
X008216Y006812D01*
X008400Y006889D01*
X008540Y007029D01*
X008616Y007213D01*
X008616Y007412D01*
X008540Y007596D01*
X008602Y007447D02*
X009036Y007447D01*
X009036Y007288D02*
X008616Y007288D01*
X008582Y007130D02*
X009036Y007130D01*
X009036Y006971D02*
X008482Y006971D01*
X008368Y006723D02*
X008301Y006757D01*
X008229Y006781D01*
X008154Y006792D01*
X007836Y006792D01*
X007836Y006333D01*
X007796Y006333D01*
X007796Y006792D01*
X007479Y006792D01*
X007404Y006781D01*
X007332Y006757D01*
X007265Y006723D01*
X007204Y006679D01*
X007150Y006625D01*
X007106Y006564D01*
X007072Y006497D01*
X007048Y006425D01*
X007036Y006350D01*
X007036Y006332D01*
X007796Y006332D01*
X007796Y006292D01*
X007836Y006292D01*
X007836Y005832D01*
X008154Y005832D01*
X008229Y005844D01*
X008301Y005868D01*
X008368Y005902D01*
X008429Y005946D01*
X008482Y006000D01*
X008527Y006061D01*
X008561Y006128D01*
X008585Y006200D01*
X008596Y006275D01*
X008596Y006292D01*
X007837Y006292D01*
X007837Y006332D01*
X008596Y006332D01*
X008596Y006350D01*
X008585Y006425D01*
X008561Y006497D01*
X008527Y006564D01*
X008482Y006625D01*
X008429Y006679D01*
X008368Y006723D01*
X008453Y006654D02*
X009036Y006654D01*
X009036Y006496D02*
X008562Y006496D01*
X008596Y006337D02*
X009036Y006337D01*
X009036Y006179D02*
X008578Y006179D01*
X008497Y006020D02*
X009036Y006020D01*
X009036Y005861D02*
X008282Y005861D01*
X008216Y005812D02*
X008400Y005736D01*
X008540Y005596D01*
X008616Y005412D01*
X008616Y005213D01*
X008540Y005029D01*
X008400Y004889D01*
X008216Y004812D01*
X007417Y004812D01*
X007233Y004889D01*
X007092Y005029D01*
X007016Y005213D01*
X007016Y005412D01*
X007092Y005596D01*
X007233Y005736D01*
X007417Y005812D01*
X008216Y005812D01*
X007836Y005861D02*
X007796Y005861D01*
X007796Y005832D02*
X007479Y005832D01*
X007404Y005844D01*
X007332Y005868D01*
X007265Y005902D01*
X007204Y005946D01*
X007150Y006000D01*
X007106Y006061D01*
X007072Y006128D01*
X007048Y006200D01*
X007036Y006275D01*
X007036Y006292D01*
X007796Y006292D01*
X007796Y005832D01*
X007796Y006020D02*
X007836Y006020D01*
X007836Y006179D02*
X007796Y006179D01*
X007796Y006337D02*
X007836Y006337D01*
X007836Y006496D02*
X007796Y006496D01*
X007796Y006654D02*
X007836Y006654D01*
X008216Y006813D02*
X009036Y006813D01*
X009036Y007764D02*
X008333Y007764D01*
X009036Y007923D02*
X007322Y007923D01*
X007300Y007764D02*
X007164Y007764D01*
X007102Y007605D02*
X007005Y007605D01*
X007031Y007447D02*
X006847Y007447D01*
X006688Y007288D02*
X007016Y007288D01*
X007051Y007130D02*
X006596Y007130D01*
X006596Y007196D02*
X008316Y008916D01*
X009036Y008196D01*
X009036Y004928D01*
X008096Y003988D01*
X008096Y004257D01*
X008096Y004368D01*
X008054Y004471D01*
X007975Y004550D01*
X007872Y004592D01*
X006932Y004592D01*
X006596Y004928D01*
X006596Y007196D01*
X006596Y006971D02*
X007150Y006971D01*
X007416Y006813D02*
X006596Y006813D01*
X006596Y006654D02*
X007179Y006654D01*
X007071Y006496D02*
X006596Y006496D01*
X006596Y006337D02*
X007036Y006337D01*
X007055Y006179D02*
X006596Y006179D01*
X006596Y006020D02*
X007135Y006020D01*
X007351Y005861D02*
X006596Y005861D01*
X006596Y005703D02*
X007200Y005703D01*
X007071Y005544D02*
X006596Y005544D01*
X006596Y005386D02*
X007016Y005386D01*
X007016Y005227D02*
X006596Y005227D01*
X006596Y005069D02*
X007076Y005069D01*
X007211Y004910D02*
X006615Y004910D01*
X006773Y004752D02*
X008860Y004752D01*
X009018Y004910D02*
X008421Y004910D01*
X008557Y005069D02*
X009036Y005069D01*
X009036Y005227D02*
X008616Y005227D01*
X008616Y005386D02*
X009036Y005386D01*
X009036Y005544D02*
X008561Y005544D01*
X008433Y005703D02*
X009036Y005703D01*
X009316Y004812D02*
X009316Y009812D01*
X009816Y009812D01*
X010316Y010312D01*
X010316Y011312D02*
X006316Y007312D01*
X006316Y004812D01*
X006816Y004312D01*
X007816Y004312D01*
X007816Y002312D01*
X007316Y001812D01*
X007316Y001312D01*
X006937Y001739D02*
X006664Y001739D01*
X006675Y001732D02*
X006605Y001783D01*
X006527Y001822D01*
X006445Y001849D01*
X006360Y001862D01*
X006336Y001862D01*
X006336Y001333D01*
X006296Y001333D01*
X006296Y001862D01*
X006273Y001862D01*
X006188Y001849D01*
X006105Y001822D01*
X006096Y001818D01*
X006096Y001868D01*
X006096Y002942D01*
X006276Y003122D01*
X006276Y003503D01*
X006007Y003772D01*
X005626Y003772D01*
X005356Y003503D01*
X005356Y003122D01*
X005536Y002942D01*
X005536Y001928D01*
X005473Y001865D01*
X005430Y001882D01*
X005203Y001882D01*
X004993Y001796D01*
X004886Y001688D01*
X004886Y001765D01*
X004769Y001882D01*
X004590Y001882D01*
X004554Y001971D01*
X003096Y003428D01*
X003096Y014029D01*
X003150Y014083D01*
X007920Y009312D01*
X006079Y007471D01*
X006036Y007368D01*
X006036Y007257D01*
X006036Y004757D01*
X006079Y004654D01*
X006158Y004575D01*
X006658Y004075D01*
X006761Y004032D01*
X006872Y004032D01*
X007536Y004032D01*
X007536Y002428D01*
X007079Y001971D01*
X007036Y001868D01*
X007036Y001813D01*
X006993Y001796D01*
X006833Y001635D01*
X006804Y001566D01*
X006787Y001601D01*
X006736Y001671D01*
X006675Y001732D01*
X006797Y001581D02*
X006811Y001581D01*
X007049Y001898D02*
X006096Y001898D01*
X006096Y002056D02*
X007164Y002056D01*
X007323Y002215D02*
X006096Y002215D01*
X006096Y002374D02*
X007481Y002374D01*
X007536Y002532D02*
X006096Y002532D01*
X006096Y002691D02*
X007536Y002691D01*
X007536Y002849D02*
X006096Y002849D01*
X006162Y003008D02*
X006499Y003008D01*
X006376Y003130D02*
X006634Y002872D01*
X006816Y002872D01*
X006816Y003312D01*
X006817Y003312D01*
X006817Y003313D01*
X007256Y003313D01*
X007256Y003495D01*
X006999Y003752D01*
X006817Y003752D01*
X006817Y003313D01*
X006816Y003313D01*
X006816Y003752D01*
X006634Y003752D01*
X006376Y003495D01*
X006376Y003313D01*
X006816Y003313D01*
X006816Y003312D01*
X006376Y003312D01*
X006376Y003130D01*
X006376Y003166D02*
X006276Y003166D01*
X006276Y003325D02*
X006376Y003325D01*
X006376Y003483D02*
X006276Y003483D01*
X006137Y003642D02*
X006524Y003642D01*
X006816Y003642D02*
X006817Y003642D01*
X006816Y003483D02*
X006817Y003483D01*
X006816Y003325D02*
X006817Y003325D01*
X006817Y003312D02*
X007256Y003312D01*
X007256Y003130D01*
X006999Y002872D01*
X006817Y002872D01*
X006817Y003312D01*
X006816Y003166D02*
X006817Y003166D01*
X006816Y003008D02*
X006817Y003008D01*
X007134Y003008D02*
X007536Y003008D01*
X007536Y003166D02*
X007256Y003166D01*
X007256Y003325D02*
X007536Y003325D01*
X007536Y003483D02*
X007256Y003483D01*
X007109Y003642D02*
X007536Y003642D01*
X007536Y003800D02*
X003096Y003800D01*
X003096Y003642D02*
X005495Y003642D01*
X005356Y003483D02*
X003096Y003483D01*
X003200Y003325D02*
X005356Y003325D01*
X005356Y003166D02*
X003359Y003166D01*
X003517Y003008D02*
X005471Y003008D01*
X005536Y002849D02*
X003676Y002849D01*
X003834Y002691D02*
X005536Y002691D01*
X005536Y002532D02*
X003993Y002532D01*
X004151Y002374D02*
X005536Y002374D01*
X005536Y002215D02*
X004310Y002215D01*
X004468Y002056D02*
X005536Y002056D01*
X005506Y001898D02*
X004584Y001898D01*
X004316Y001812D02*
X002816Y003312D01*
X002816Y014312D01*
X002522Y014581D02*
X001886Y014581D01*
X001886Y014423D02*
X002418Y014423D01*
X002418Y014264D02*
X001886Y014264D01*
X001886Y014106D02*
X002460Y014106D01*
X002536Y013947D02*
X001886Y013947D01*
X001815Y013789D02*
X002536Y013789D01*
X002536Y013630D02*
X001802Y013630D01*
X001867Y013472D02*
X002536Y013472D01*
X002536Y013313D02*
X001886Y013313D01*
X001868Y013154D02*
X002536Y013154D01*
X002536Y012996D02*
X001802Y012996D01*
X001647Y012837D02*
X002536Y012837D01*
X002536Y012679D02*
X001756Y012679D01*
X001847Y012520D02*
X002536Y012520D01*
X002536Y012362D02*
X001886Y012362D01*
X001886Y012203D02*
X002536Y012203D01*
X002536Y012045D02*
X001822Y012045D01*
X001696Y011886D02*
X002536Y011886D01*
X002536Y011728D02*
X001707Y011728D01*
X001827Y011569D02*
X002536Y011569D01*
X002536Y011410D02*
X001886Y011410D01*
X001886Y011252D02*
X002536Y011252D01*
X002536Y011093D02*
X001843Y011093D01*
X001745Y010935D02*
X002536Y010935D01*
X002536Y010776D02*
X001511Y010776D01*
X001296Y010618D02*
X002536Y010618D01*
X002536Y010459D02*
X001296Y010459D01*
X001296Y010301D02*
X002536Y010301D01*
X002536Y010142D02*
X001296Y010142D01*
X001296Y009984D02*
X002536Y009984D01*
X002536Y009825D02*
X001827Y009825D01*
X001886Y009666D02*
X002536Y009666D01*
X002536Y009508D02*
X001886Y009508D01*
X001886Y009349D02*
X002536Y009349D01*
X002536Y009191D02*
X001886Y009191D01*
X001886Y009032D02*
X002536Y009032D01*
X002536Y008874D02*
X001886Y008874D01*
X001720Y008715D02*
X002536Y008715D01*
X002536Y008557D02*
X001832Y008557D01*
X001886Y008398D02*
X002536Y008398D01*
X002536Y008240D02*
X001886Y008240D01*
X001837Y008081D02*
X002536Y008081D01*
X002536Y007923D02*
X001733Y007923D01*
X001671Y007764D02*
X002536Y007764D01*
X002536Y007605D02*
X001812Y007605D01*
X001878Y007447D02*
X002536Y007447D01*
X002536Y007288D02*
X001886Y007288D01*
X001858Y007130D02*
X002536Y007130D01*
X002536Y006971D02*
X001781Y006971D01*
X001599Y006813D02*
X002536Y006813D01*
X002536Y006654D02*
X001781Y006654D01*
X001857Y006496D02*
X002536Y006496D01*
X002536Y006337D02*
X001886Y006337D01*
X001878Y006179D02*
X002536Y006179D01*
X002536Y006020D02*
X001812Y006020D01*
X001671Y005861D02*
X002536Y005861D01*
X002536Y005703D02*
X001296Y005703D01*
X001296Y005544D02*
X002536Y005544D01*
X002536Y005386D02*
X001296Y005386D01*
X001296Y005227D02*
X002536Y005227D01*
X002536Y005069D02*
X001296Y005069D01*
X001296Y004910D02*
X002536Y004910D01*
X002536Y004752D02*
X001886Y004752D01*
X001886Y004593D02*
X002536Y004593D01*
X002536Y004435D02*
X001886Y004435D01*
X001886Y004276D02*
X002536Y004276D01*
X002536Y004117D02*
X001886Y004117D01*
X001886Y003959D02*
X002536Y003959D01*
X002536Y003800D02*
X001827Y003800D01*
X001793Y003642D02*
X002536Y003642D01*
X002536Y003483D02*
X001863Y003483D01*
X001886Y003325D02*
X002536Y003325D01*
X002574Y003166D02*
X001873Y003166D01*
X001807Y003008D02*
X002725Y003008D01*
X002884Y002849D02*
X001659Y002849D01*
X001744Y002691D02*
X003042Y002691D01*
X003201Y002532D02*
X001842Y002532D01*
X001886Y002374D02*
X003359Y002374D01*
X003518Y002215D02*
X001886Y002215D01*
X001827Y002056D02*
X003676Y002056D01*
X003835Y001898D02*
X001708Y001898D01*
X001696Y001739D02*
X003746Y001739D01*
X003746Y001581D02*
X001822Y001581D01*
X001886Y001422D02*
X003746Y001422D01*
X003746Y001264D02*
X001886Y001264D01*
X001847Y001105D02*
X003746Y001105D01*
X003746Y000947D02*
X001757Y000947D01*
X004316Y001312D02*
X004316Y001812D01*
X004886Y001739D02*
X004937Y001739D01*
X005316Y001312D02*
X006066Y000562D01*
X009316Y000562D01*
X009316Y001312D01*
X010316Y002312D01*
X009784Y002691D02*
X008596Y002691D01*
X008596Y002849D02*
X011384Y002849D01*
X011542Y002691D02*
X010849Y002691D01*
X010983Y002532D02*
X011701Y002532D01*
X011859Y002374D02*
X011036Y002374D01*
X011034Y002215D02*
X012018Y002215D01*
X012176Y002056D02*
X010968Y002056D01*
X010778Y001898D02*
X012335Y001898D01*
X012494Y001739D02*
X010748Y001739D01*
X010959Y001581D02*
X012652Y001581D01*
X012604Y001422D02*
X011029Y001422D01*
X011036Y001264D02*
X012596Y001264D01*
X012644Y001105D02*
X010988Y001105D01*
X010861Y000947D02*
X012772Y000947D01*
X013316Y001312D02*
X011316Y003312D01*
X011316Y005812D01*
X011611Y005544D02*
X012681Y005544D01*
X012623Y005386D02*
X011596Y005386D01*
X011596Y005227D02*
X012624Y005227D01*
X012690Y005069D02*
X011596Y005069D01*
X011596Y004910D02*
X012877Y004910D01*
X012915Y004752D02*
X011596Y004752D01*
X011596Y004593D02*
X012687Y004593D01*
X012609Y004435D02*
X011596Y004435D01*
X011596Y004276D02*
X012596Y004276D01*
X012639Y004117D02*
X011596Y004117D01*
X011596Y003959D02*
X012759Y003959D01*
X012796Y003702D02*
X012666Y003573D01*
X012596Y003404D01*
X012596Y003221D01*
X012666Y003052D01*
X012796Y002922D01*
X012965Y002852D01*
X013668Y002852D01*
X013837Y002922D01*
X013966Y003052D01*
X014036Y003221D01*
X014036Y003404D01*
X013966Y003573D01*
X013837Y003702D01*
X013668Y003772D01*
X012965Y003772D01*
X012796Y003702D01*
X012735Y003642D02*
X011596Y003642D01*
X011596Y003800D02*
X014876Y003800D01*
X014876Y003812D02*
X014876Y003630D01*
X015134Y003372D01*
X015316Y003372D01*
X015316Y003812D01*
X015317Y003812D01*
X015317Y003813D01*
X015756Y003813D01*
X015756Y003995D01*
X015499Y004252D01*
X015317Y004252D01*
X015317Y003813D01*
X015316Y003813D01*
X015316Y004252D01*
X015134Y004252D01*
X014876Y003995D01*
X014876Y003813D01*
X015316Y003813D01*
X015316Y003812D01*
X014876Y003812D01*
X014876Y003959D02*
X013873Y003959D01*
X013993Y004117D02*
X014999Y004117D01*
X015316Y004117D02*
X015317Y004117D01*
X015316Y003959D02*
X015317Y003959D01*
X015317Y003812D02*
X015756Y003812D01*
X015756Y003630D01*
X015499Y003372D01*
X015317Y003372D01*
X015317Y003812D01*
X015316Y003800D02*
X015317Y003800D01*
X015316Y003642D02*
X015317Y003642D01*
X015316Y003483D02*
X015317Y003483D01*
X015023Y003483D02*
X014003Y003483D01*
X014036Y003325D02*
X019246Y003325D01*
X019260Y003166D02*
X014014Y003166D01*
X013922Y003008D02*
X019326Y003008D01*
X019474Y002849D02*
X012176Y002849D01*
X012334Y002691D02*
X012784Y002691D01*
X012649Y002532D02*
X012493Y002532D01*
X012711Y003008D02*
X012017Y003008D01*
X011859Y003166D02*
X012619Y003166D01*
X012596Y003325D02*
X011700Y003325D01*
X011596Y003483D02*
X012629Y003483D01*
X013897Y003642D02*
X014876Y003642D01*
X015609Y003483D02*
X019270Y003483D01*
X019340Y003642D02*
X015756Y003642D01*
X015756Y003800D02*
X019306Y003800D01*
X019246Y003959D02*
X015756Y003959D01*
X015634Y004117D02*
X019246Y004117D01*
X019246Y004276D02*
X014036Y004276D01*
X014024Y004435D02*
X015044Y004435D01*
X014885Y004593D02*
X013946Y004593D01*
X012854Y005703D02*
X011702Y005703D01*
X011036Y003642D02*
X010897Y003642D01*
X011003Y003483D02*
X011036Y003483D01*
X011036Y003325D02*
X011036Y003325D01*
X011014Y003166D02*
X011074Y003166D01*
X011225Y003008D02*
X010922Y003008D01*
X009711Y003008D02*
X008596Y003008D01*
X008596Y003166D02*
X009619Y003166D01*
X009596Y003325D02*
X008596Y003325D01*
X008596Y003483D02*
X009629Y003483D01*
X009649Y002532D02*
X008596Y002532D01*
X008596Y002374D02*
X009596Y002374D01*
X009599Y002215D02*
X008596Y002215D01*
X008696Y001739D02*
X009347Y001739D01*
X009189Y001581D02*
X008822Y001581D01*
X008886Y001422D02*
X009059Y001422D01*
X009036Y001264D02*
X008886Y001264D01*
X008847Y001105D02*
X009036Y001105D01*
X009036Y000947D02*
X008757Y000947D01*
X008316Y001312D02*
X008316Y003812D01*
X009316Y004812D01*
X008701Y004593D02*
X006932Y004593D01*
X006457Y004276D02*
X003096Y004276D01*
X003096Y004117D02*
X006615Y004117D01*
X006298Y004435D02*
X003096Y004435D01*
X003096Y004593D02*
X006140Y004593D01*
X006038Y004752D02*
X003096Y004752D01*
X003096Y004910D02*
X006036Y004910D01*
X006036Y005069D02*
X003096Y005069D01*
X003096Y005227D02*
X006036Y005227D01*
X006036Y005386D02*
X003096Y005386D01*
X003096Y005544D02*
X006036Y005544D01*
X006036Y005703D02*
X003096Y005703D01*
X003096Y005861D02*
X006036Y005861D01*
X006036Y006020D02*
X003096Y006020D01*
X003096Y006179D02*
X006036Y006179D01*
X006036Y006337D02*
X003096Y006337D01*
X003096Y006496D02*
X006036Y006496D01*
X006036Y006654D02*
X003096Y006654D01*
X003096Y006813D02*
X006036Y006813D01*
X006036Y006971D02*
X003096Y006971D01*
X003096Y007130D02*
X006036Y007130D01*
X006036Y007288D02*
X003096Y007288D01*
X003096Y007447D02*
X006069Y007447D01*
X006213Y007605D02*
X003096Y007605D01*
X003096Y007764D02*
X006372Y007764D01*
X006531Y007923D02*
X003096Y007923D01*
X003096Y008081D02*
X006689Y008081D01*
X006848Y008240D02*
X003096Y008240D01*
X003096Y008398D02*
X007006Y008398D01*
X007165Y008557D02*
X003096Y008557D01*
X003096Y008715D02*
X007323Y008715D01*
X007482Y008874D02*
X003096Y008874D01*
X003096Y009032D02*
X007640Y009032D01*
X007799Y009191D02*
X003096Y009191D01*
X003096Y009349D02*
X007883Y009349D01*
X007725Y009508D02*
X003096Y009508D01*
X003096Y009666D02*
X007566Y009666D01*
X007408Y009825D02*
X003096Y009825D01*
X003096Y009984D02*
X007249Y009984D01*
X007091Y010142D02*
X003096Y010142D01*
X003096Y010301D02*
X006932Y010301D01*
X006774Y010459D02*
X003096Y010459D01*
X003096Y010618D02*
X006615Y010618D01*
X006457Y010776D02*
X003096Y010776D01*
X003096Y010935D02*
X006298Y010935D01*
X006139Y011093D02*
X003096Y011093D01*
X003096Y011252D02*
X005981Y011252D01*
X005822Y011410D02*
X003096Y011410D01*
X003096Y011569D02*
X005664Y011569D01*
X005505Y011728D02*
X003096Y011728D01*
X003096Y011886D02*
X005347Y011886D01*
X005188Y012045D02*
X003096Y012045D01*
X003096Y012203D02*
X005030Y012203D01*
X004871Y012362D02*
X003096Y012362D01*
X003096Y012520D02*
X004713Y012520D01*
X004554Y012679D02*
X003096Y012679D01*
X003096Y012837D02*
X004395Y012837D01*
X004237Y012996D02*
X003096Y012996D01*
X003096Y013154D02*
X004078Y013154D01*
X003920Y013313D02*
X003096Y013313D01*
X003096Y013472D02*
X003761Y013472D01*
X003603Y013630D02*
X003096Y013630D01*
X003096Y013789D02*
X003444Y013789D01*
X003286Y013947D02*
X003096Y013947D01*
X003036Y014740D02*
X001886Y014740D01*
X001296Y014898D02*
X003036Y014898D01*
X003036Y015057D02*
X001296Y015057D01*
X001296Y015216D02*
X003036Y015216D01*
X003036Y015374D02*
X001296Y015374D01*
X001296Y015533D02*
X003036Y015533D01*
X003036Y015691D02*
X001296Y015691D01*
X001296Y015850D02*
X002371Y015850D01*
X002387Y015838D02*
X002448Y015807D01*
X002514Y015786D01*
X002582Y015775D01*
X002616Y015775D01*
X002616Y016212D01*
X002179Y016212D01*
X002179Y016178D01*
X002190Y016110D01*
X002211Y016044D01*
X002242Y015983D01*
X002283Y015927D01*
X002331Y015879D01*
X002387Y015838D01*
X002616Y015850D02*
X002617Y015850D01*
X002616Y016008D02*
X002617Y016008D01*
X002616Y016167D02*
X002617Y016167D01*
X002861Y015850D02*
X003032Y015850D01*
X002229Y016008D02*
X001296Y016008D01*
X001296Y016167D02*
X002181Y016167D01*
X002193Y016325D02*
X001296Y016325D01*
X001296Y016484D02*
X002273Y016484D01*
X002535Y016642D02*
X001296Y016642D01*
X001296Y016801D02*
X002529Y016801D01*
X002544Y016959D02*
X001296Y016959D01*
X001296Y017118D02*
X002625Y017118D01*
X004549Y016959D02*
X006559Y016959D01*
X006536Y016792D02*
X006536Y016775D01*
X006548Y016700D01*
X006572Y016628D01*
X006606Y016561D01*
X006650Y016500D01*
X006704Y016446D01*
X006765Y016402D01*
X006832Y016368D01*
X006904Y016344D01*
X006979Y016332D01*
X007296Y016332D01*
X007296Y016792D01*
X006536Y016792D01*
X006567Y016642D02*
X004621Y016642D01*
X004654Y016484D02*
X006666Y016484D01*
X007296Y016484D02*
X007336Y016484D01*
X007336Y016642D02*
X007296Y016642D01*
X007296Y016801D02*
X004589Y016801D01*
X004066Y014312D02*
X007316Y011062D01*
X007316Y010812D01*
X011316Y010812D01*
X012096Y010935D02*
X012783Y010935D01*
X012649Y011093D02*
X012096Y011093D01*
X012096Y011252D02*
X012596Y011252D01*
X012599Y011410D02*
X012096Y011410D01*
X012096Y011569D02*
X012665Y011569D01*
X012857Y011728D02*
X012096Y011728D01*
X012089Y011886D02*
X012884Y011886D01*
X012674Y012045D02*
X011980Y012045D01*
X012604Y012203D02*
X011029Y012203D01*
X011036Y012362D02*
X012596Y012362D01*
X012645Y012520D02*
X010988Y012520D01*
X010860Y012679D02*
X012772Y012679D01*
X012751Y012996D02*
X010910Y012996D01*
X011009Y013154D02*
X012645Y013154D01*
X012752Y013630D02*
X010909Y013630D01*
X010862Y013947D02*
X012771Y013947D01*
X012644Y014106D02*
X010989Y014106D01*
X011036Y014264D02*
X012596Y014264D01*
X012604Y014423D02*
X011029Y014423D01*
X010958Y014581D02*
X012675Y014581D01*
X012886Y014740D02*
X010746Y014740D01*
X013065Y016959D02*
X013356Y016959D01*
X013356Y016801D02*
X013224Y016801D01*
X013471Y017118D02*
X012907Y017118D01*
X014053Y018069D02*
X014580Y018069D01*
X014394Y018228D02*
X014239Y018228D01*
X014305Y018386D02*
X014327Y018386D01*
X014316Y018545D02*
X014316Y018545D01*
X014316Y018703D02*
X014316Y018703D01*
X014316Y018862D02*
X014316Y018862D01*
X014316Y019021D02*
X014316Y019021D01*
X014316Y019179D02*
X014316Y019179D01*
X014264Y019338D02*
X014368Y019338D01*
X014493Y019496D02*
X014140Y019496D01*
X015140Y019496D02*
X015528Y019496D01*
X015392Y019338D02*
X015264Y019338D01*
X015316Y019179D02*
X015341Y019179D01*
X015336Y019021D02*
X015316Y019021D01*
X015316Y018862D02*
X015336Y018862D01*
X015336Y018792D02*
X015336Y018475D01*
X015348Y018400D01*
X015372Y018328D01*
X015406Y018261D01*
X015450Y018200D01*
X015504Y018146D01*
X015565Y018102D01*
X015632Y018068D01*
X015704Y018044D01*
X015779Y018032D01*
X015796Y018032D01*
X015796Y018792D01*
X015336Y018792D01*
X015336Y018703D02*
X015316Y018703D01*
X015316Y018545D02*
X015336Y018545D01*
X015353Y018386D02*
X015305Y018386D01*
X015239Y018228D02*
X015430Y018228D01*
X015629Y018069D02*
X015053Y018069D01*
X015796Y018069D02*
X015836Y018069D01*
X015836Y018228D02*
X015796Y018228D01*
X015796Y018386D02*
X015836Y018386D01*
X015836Y018545D02*
X015796Y018545D01*
X015796Y018703D02*
X015836Y018703D01*
X016296Y018703D02*
X016836Y018703D01*
X016836Y018792D02*
X016836Y018475D01*
X016848Y018400D01*
X016872Y018328D01*
X016906Y018261D01*
X016950Y018200D01*
X017004Y018146D01*
X017065Y018102D01*
X017132Y018068D01*
X017204Y018044D01*
X017279Y018032D01*
X017296Y018032D01*
X017296Y018792D01*
X016836Y018792D01*
X016836Y018862D02*
X016296Y018862D01*
X016296Y019021D02*
X016836Y019021D01*
X016841Y019179D02*
X016292Y019179D01*
X016240Y019338D02*
X016892Y019338D01*
X017028Y019496D02*
X016105Y019496D01*
X016296Y018545D02*
X016836Y018545D01*
X016853Y018386D02*
X016280Y018386D01*
X016203Y018228D02*
X016930Y018228D01*
X017129Y018069D02*
X016004Y018069D01*
X017296Y018069D02*
X017336Y018069D01*
X017336Y018228D02*
X017296Y018228D01*
X017296Y018386D02*
X017336Y018386D01*
X017336Y018545D02*
X017296Y018545D01*
X017296Y018703D02*
X017336Y018703D01*
X017796Y018703D02*
X017816Y018703D01*
X017816Y018545D02*
X017796Y018545D01*
X017780Y018386D02*
X017827Y018386D01*
X017894Y018228D02*
X017703Y018228D01*
X017504Y018069D02*
X018080Y018069D01*
X017816Y018862D02*
X017796Y018862D01*
X017796Y019021D02*
X017816Y019021D01*
X017816Y019179D02*
X017792Y019179D01*
X017740Y019338D02*
X017868Y019338D01*
X017993Y019496D02*
X017605Y019496D01*
X017165Y015057D02*
X013596Y015057D01*
X013596Y014898D02*
X017006Y014898D01*
X016848Y014740D02*
X013746Y014740D01*
X013958Y014581D02*
X016689Y014581D01*
X016531Y014423D02*
X014029Y014423D01*
X014816Y012812D02*
X015316Y012812D01*
X015596Y011728D02*
X017581Y011728D01*
X017422Y011569D02*
X015596Y011569D01*
X015596Y011410D02*
X017356Y011410D01*
X017356Y011252D02*
X017027Y011252D01*
X017186Y011093D02*
X017385Y011093D01*
X017276Y010935D02*
X017543Y010935D01*
X016605Y011252D02*
X015596Y011252D01*
X015596Y011093D02*
X016447Y011093D01*
X016519Y010459D02*
X015359Y010459D01*
X014886Y009032D02*
X013947Y009032D01*
X013719Y008874D02*
X014856Y008874D01*
X014856Y008715D02*
X013806Y008715D01*
X013973Y008557D02*
X014922Y008557D01*
X015080Y008398D02*
X014036Y008398D01*
X015798Y005861D02*
X017617Y005861D01*
X017276Y006971D02*
X018595Y006971D01*
X018436Y007130D02*
X017149Y007130D01*
X018816Y007312D02*
X018816Y010312D01*
X019816Y011312D01*
X019816Y011812D01*
X019993Y011093D02*
X020021Y011093D01*
X020021Y010935D02*
X019835Y010935D01*
X019676Y010776D02*
X020021Y010776D01*
X020021Y010618D02*
X019518Y010618D01*
X019359Y010459D02*
X020021Y010459D01*
X020021Y010301D02*
X019201Y010301D01*
X019096Y010142D02*
X020021Y010142D01*
X020021Y009984D02*
X019096Y009984D01*
X019096Y009825D02*
X019306Y009825D01*
X019246Y009666D02*
X019096Y009666D01*
X019096Y009508D02*
X019246Y009508D01*
X019246Y009349D02*
X019096Y009349D01*
X019096Y009191D02*
X019246Y009191D01*
X019246Y009032D02*
X019096Y009032D01*
X019096Y008874D02*
X019246Y008874D01*
X019096Y008715D02*
X019413Y008715D01*
X019301Y008557D02*
X019096Y008557D01*
X019096Y008398D02*
X019246Y008398D01*
X019246Y008240D02*
X019096Y008240D01*
X019096Y008081D02*
X019295Y008081D01*
X019400Y007923D02*
X019096Y007923D01*
X019096Y007764D02*
X019462Y007764D01*
X019321Y007605D02*
X019096Y007605D01*
X019214Y007447D02*
X019255Y007447D01*
X019246Y007288D02*
X019214Y007288D01*
X019197Y007130D02*
X019275Y007130D01*
X019351Y006971D02*
X019038Y006971D01*
X020021Y005227D02*
X015552Y005227D01*
X015711Y005069D02*
X020021Y005069D01*
X020021Y004910D02*
X015776Y004910D01*
X015776Y004752D02*
X019246Y004752D01*
X019246Y004593D02*
X015748Y004593D01*
X015589Y004435D02*
X019246Y004435D01*
X019417Y002691D02*
X013849Y002691D01*
X013983Y002532D02*
X019311Y002532D01*
X019269Y002374D02*
X014036Y002374D01*
X014034Y002215D02*
X016568Y002215D01*
X016626Y002272D02*
X016356Y002003D01*
X016356Y001622D01*
X016626Y001352D01*
X017007Y001352D01*
X017276Y001622D01*
X017276Y002003D01*
X017007Y002272D01*
X016626Y002272D01*
X016410Y002056D02*
X013968Y002056D01*
X013778Y001898D02*
X016356Y001898D01*
X016356Y001739D02*
X013748Y001739D01*
X013959Y001581D02*
X016397Y001581D01*
X016556Y001422D02*
X014029Y001422D01*
X014036Y001264D02*
X019246Y001264D01*
X019246Y001422D02*
X017077Y001422D01*
X017235Y001581D02*
X019311Y001581D01*
X019437Y001739D02*
X017276Y001739D01*
X017276Y001898D02*
X019453Y001898D01*
X019330Y002056D02*
X017223Y002056D01*
X017064Y002215D02*
X019275Y002215D01*
X019285Y001105D02*
X013988Y001105D01*
X013861Y000947D02*
X019376Y000947D01*
X009772Y000947D02*
X009596Y000947D01*
X009596Y001105D02*
X009644Y001105D01*
X007536Y003959D02*
X003096Y003959D01*
X005816Y003312D02*
X005816Y001812D01*
X005316Y001312D01*
X006296Y001422D02*
X006336Y001422D01*
X006336Y001581D02*
X006296Y001581D01*
X006296Y001739D02*
X006336Y001739D01*
X008096Y004117D02*
X008226Y004117D01*
X008096Y004276D02*
X008384Y004276D01*
X008543Y004435D02*
X008069Y004435D01*
X007481Y008081D02*
X009036Y008081D01*
X008993Y008240D02*
X007639Y008240D01*
X007798Y008398D02*
X008835Y008398D01*
X008676Y008557D02*
X007957Y008557D01*
X008115Y008715D02*
X008518Y008715D01*
X008359Y008874D02*
X008274Y008874D01*
X011791Y018386D02*
X012370Y018386D01*
X012212Y018545D02*
X011949Y018545D01*
X012026Y018703D02*
X012126Y018703D01*
X012126Y018862D02*
X012026Y018862D01*
X012009Y019021D02*
X012152Y019021D01*
X012311Y019179D02*
X011850Y019179D01*
D21*
X002816Y014312D03*
X018816Y007312D03*
D22*
X011316Y005812D03*
X011316Y010812D03*
M02*
