G75*
G70*
%OFA0B0*%
%FSLAX24Y24*%
%IPPOS*%
%LPD*%
%AMOC8*
5,1,8,0,0,1.08239X$1,22.5*
%
%ADD10C,0.0000*%
%ADD11C,0.0600*%
%ADD12OC8,0.0600*%
%ADD13R,0.0730X0.0730*%
%ADD14C,0.0730*%
%ADD15C,0.0680*%
%ADD16R,0.0820X0.0820*%
%ADD17C,0.0820*%
%ADD18C,0.0595*%
%ADD19C,0.1202*%
%ADD20OC8,0.0476*%
%ADD21C,0.0476*%
D10*
X000816Y000312D02*
X000816Y019997D01*
X020501Y019997D01*
X020501Y000312D01*
X000816Y000312D01*
D11*
X010056Y001312D02*
X010576Y001312D01*
X010576Y002312D02*
X010056Y002312D01*
X010056Y003312D02*
X010576Y003312D01*
X010576Y004312D02*
X010056Y004312D01*
X010056Y005312D02*
X010576Y005312D01*
X010576Y006312D02*
X010056Y006312D01*
X010056Y007312D02*
X010576Y007312D01*
X010576Y008312D02*
X010056Y008312D01*
X010056Y009312D02*
X010576Y009312D01*
X010576Y010312D02*
X010056Y010312D01*
X010056Y011312D02*
X010576Y011312D01*
X010576Y012312D02*
X010056Y012312D01*
X010056Y013312D02*
X010576Y013312D01*
X010576Y014312D02*
X010056Y014312D01*
X013056Y014312D02*
X013576Y014312D01*
X013576Y013312D02*
X013056Y013312D01*
X013056Y012312D02*
X013576Y012312D01*
X013576Y011312D02*
X013056Y011312D01*
X013056Y010312D02*
X013576Y010312D01*
X013576Y009312D02*
X013056Y009312D01*
X013056Y008312D02*
X013576Y008312D01*
X013576Y007312D02*
X013056Y007312D01*
X013056Y006312D02*
X013576Y006312D01*
X013576Y005312D02*
X013056Y005312D01*
X013056Y004312D02*
X013576Y004312D01*
X013576Y003312D02*
X013056Y003312D01*
X013056Y002312D02*
X013576Y002312D01*
X013576Y001312D02*
X013056Y001312D01*
D12*
X015316Y003812D03*
X015316Y004812D03*
X016816Y006812D03*
X017816Y006312D03*
X015316Y008812D03*
X015316Y009812D03*
X016816Y010812D03*
X017816Y011312D03*
X019816Y011812D03*
X016816Y015812D03*
X018816Y016812D03*
X019816Y016812D03*
X015316Y013812D03*
X015316Y012812D03*
X012316Y016312D03*
X012316Y017312D03*
X012566Y018812D03*
X011566Y018812D03*
X010316Y018812D03*
X009316Y018812D03*
X013816Y016812D03*
X006816Y003312D03*
X005816Y003312D03*
X016816Y001812D03*
D13*
X015316Y006312D03*
X010316Y016812D03*
D14*
X009316Y016812D03*
X015316Y007312D03*
D15*
X008116Y007312D02*
X007516Y007312D01*
X007516Y006312D02*
X008116Y006312D01*
X008116Y005312D02*
X007516Y005312D01*
X007616Y016812D02*
X007016Y016812D01*
X007016Y017812D02*
X007616Y017812D01*
X007616Y018812D02*
X007016Y018812D01*
X013816Y019112D02*
X013816Y018512D01*
X014816Y018512D02*
X014816Y019112D01*
X015816Y019112D02*
X015816Y018512D01*
X017316Y018512D02*
X017316Y019112D01*
X018316Y019112D02*
X018316Y018512D01*
X019316Y018512D02*
X019316Y019112D01*
D16*
X019816Y009312D03*
X019816Y004312D03*
X004316Y001312D03*
X001316Y004312D03*
X001316Y009312D03*
X001316Y014312D03*
D17*
X001316Y013312D03*
X001316Y012312D03*
X001316Y011312D03*
X001316Y008312D03*
X001316Y007312D03*
X001316Y006312D03*
X001316Y003312D03*
X001316Y002312D03*
X001316Y001312D03*
X005316Y001312D03*
X006316Y001312D03*
X007316Y001312D03*
X008316Y001312D03*
X019816Y001312D03*
X019816Y002312D03*
X019816Y003312D03*
X019816Y006312D03*
X019816Y007312D03*
X019816Y008312D03*
D18*
X003986Y016212D03*
X003316Y016212D03*
X002616Y016212D03*
X002986Y016832D03*
X003676Y016832D03*
D19*
X004753Y018312D03*
X001879Y018312D03*
D20*
X002816Y014312D03*
X018816Y007312D03*
D21*
X011316Y005812D03*
X011316Y010812D03*
M02*
