%
M48
M72
T01C0.0236
T02C0.0276
T03C0.0315
T04C0.0320
T05C0.0400
T06C0.0748
%
T01
X11316Y5812
X11316Y10812
X18816Y7312
X2816Y14312
T02
X9316Y16812
X10316Y16812
X15316Y7312
X15316Y6312
T03
X2616Y16212
X3316Y16212
X3986Y16212
X3676Y16832
X2986Y16832
T04
X9316Y18812
X10316Y18812
X11566Y18812
X12566Y18812
X12316Y17312
X12316Y16312
X13816Y16812
X13316Y14312
X13316Y13312
X13316Y12312
X13316Y11312
X13316Y10312
X13316Y9312
X13316Y8312
X13316Y7312
X13316Y6312
X13316Y5312
X13316Y4312
X13316Y3312
X13316Y2312
X13316Y1312
X15316Y3812
X15316Y4812
X16816Y6812
X17816Y6312
X15316Y8812
X15316Y9812
X16816Y10812
X17816Y11312
X19816Y11812
X16816Y15812
X18816Y16812
X19816Y16812
X15316Y13812
X15316Y12812
X10316Y12312
X10316Y11312
X10316Y10312
X10316Y9312
X10316Y8312
X10316Y7312
X10316Y6312
X10316Y5312
X10316Y4312
X10316Y3312
X10316Y2312
X10316Y1312
X6816Y3312
X5816Y3312
X10316Y13312
X10316Y14312
X16816Y1812
T05
X1316Y1312
X1316Y2312
X1316Y3312
X1316Y4312
X1316Y6312
X1316Y7312
X1316Y8312
X1316Y9312
X1316Y11312
X1316Y12312
X1316Y13312
X1316Y14312
X7316Y16812
X7316Y17812
X7316Y18812
X13816Y18812
X14816Y18812
X15816Y18812
X17316Y18812
X18316Y18812
X19316Y18812
X19816Y9312
X19816Y8312
X19816Y7312
X19816Y6312
X19816Y4312
X19816Y3312
X19816Y2312
X19816Y1312
X8316Y1312
X7316Y1312
X6316Y1312
X5316Y1312
X4316Y1312
X7816Y5312
X7816Y6312
X7816Y7312
T06
X1879Y18312
X4753Y18312
M30
